<svg width="90" height="90" viewBox="0 0 90 90" fill="none" xmlns="http://www.w3.org/2000/svg">
<path d="M80.3571 0H9.64286C7.08541 0 4.63271 1.01594 2.82433 2.82433C1.01594 4.63271 0 7.08541 0 9.64286V80.3571C0 82.9146 1.01594 85.3673 2.82433 87.1757C4.63271 88.9841 7.08541 90 9.64286 90H80.3571C82.9146 90 85.3673 88.9841 87.1757 87.1757C88.9841 85.3673 90 82.9146 90 80.3571V9.64286C90 7.08541 88.9841 4.63271 87.1757 2.82433C85.3673 1.01594 82.9146 0 80.3571 0ZM9.64286 6.42857H80.3571C81.2096 6.42857 82.0272 6.76722 82.63 7.37001C83.2328 7.97281 83.5714 8.79038 83.5714 9.64286V25.7143H6.42857V9.64286C6.42857 8.79038 6.76722 7.97281 7.37001 7.37001C7.97281 6.76722 8.79038 6.42857 9.64286 6.42857ZM80.3571 83.5714H9.64286C8.79038 83.5714 7.97281 83.2328 7.37001 82.63C6.76722 82.0272 6.42857 81.2096 6.42857 80.3571V32.1429H83.5714V80.3571C83.5714 81.2096 83.2328 82.0272 82.63 82.63C82.0272 83.2328 81.2096 83.5714 80.3571 83.5714Z" fill="#FCB83F"/>
<path d="M16.0717 19.2826H19.286C20.1385 19.2826 20.956 18.9439 21.5588 18.3411C22.1616 17.7383 22.5003 16.9208 22.5003 16.0683C22.5003 15.2158 22.1616 14.3982 21.5588 13.7954C20.956 13.1927 20.1385 12.854 19.286 12.854H16.0717C15.2192 12.854 14.4017 13.1927 13.7989 13.7954C13.1961 14.3982 12.8574 15.2158 12.8574 16.0683C12.8574 16.9208 13.1961 17.7383 13.7989 18.3411C14.4017 18.9439 15.2192 19.2826 16.0717 19.2826Z" fill="#FCB83F"/>
<path d="M32.141 19.2826H35.3553C36.2078 19.2826 37.0254 18.9439 37.6282 18.3411C38.231 17.7383 38.5696 16.9208 38.5696 16.0683C38.5696 15.2158 38.231 14.3982 37.6282 13.7954C37.0254 13.1927 36.2078 12.854 35.3553 12.854H32.141C31.2886 12.854 30.471 13.1927 29.8682 13.7954C29.2654 14.3982 28.9268 15.2158 28.9268 16.0683C28.9268 16.9208 29.2654 17.7383 29.8682 18.3411C30.471 18.9439 31.2886 19.2826 32.141 19.2826Z" fill="#FCB83F"/>
<path d="M73.8404 47.5425C73.8243 47.4654 73.8018 47.3979 73.7793 47.3207C73.6865 46.9685 73.532 46.6355 73.3229 46.3372L73.2972 46.3082V46.2857C73.2972 46.2632 73.2586 46.2568 73.2425 46.2375C73.0164 45.9514 72.7424 45.7067 72.4325 45.5143C72.3811 45.4822 72.3393 45.4468 72.2847 45.4179C71.9698 45.2432 71.6274 45.1237 71.2722 45.0643C71.2015 45.0643 71.134 45.0643 71.06 45.0386C70.9861 45.0129 70.8286 45 70.7161 45H61.0733C60.2208 45 59.4032 45.3387 58.8004 45.9415C58.1976 46.5443 57.859 47.3618 57.859 48.2143C57.859 49.0668 58.1976 49.8844 58.8004 50.4871C59.4032 51.0899 60.2208 51.4286 61.0733 51.4286L45.0018 63.4822L21.2161 45.6429C20.5341 45.1314 19.6769 44.9118 18.833 45.0323C17.9891 45.1529 17.2276 45.6037 16.7161 46.2857C16.2046 46.9677 15.985 47.825 16.1056 48.6689C16.2261 49.5128 16.677 50.2742 17.359 50.7857L43.0733 70.0714C43.6296 70.4887 44.3064 70.7143 45.0018 70.7143C45.6973 70.7143 46.374 70.4887 46.9304 70.0714L64.4386 56.9379C64.2638 57.7229 64.3896 58.545 64.7912 59.2418C65.1928 59.9387 65.8411 60.4596 66.6081 60.7018C67.375 60.944 68.2049 60.8899 68.9339 60.5501C69.6629 60.2103 70.238 59.6095 70.5458 58.8664L73.76 49.2236C73.8011 49.0793 73.8312 48.9321 73.85 48.7832C73.85 48.7189 73.8822 48.6611 73.8886 48.5968C73.9315 48.2451 73.9152 47.8888 73.8404 47.5425Z" fill="#FCB83F"/>
</svg>
