<svg width="90" height="88" viewBox="0 0 90 88" fill="none" xmlns="http://www.w3.org/2000/svg">
<path d="M44.8427 69.1602C46.7628 69.1602 48.3192 67.6387 48.3192 65.7617C48.3192 63.8848 46.7628 62.3633 44.8427 62.3633H44.8409C42.9208 62.3633 41.3652 63.8848 41.3652 65.7617C41.3652 67.6387 42.9226 69.1602 44.8427 69.1602Z" fill="#1FDCDC"/>
<path d="M85.2677 21.5022L67.3465 3.98356C64.72 1.41604 61.2278 0.00195312 57.5132 0.00195312H32.1686C28.4539 0.00195312 24.9618 1.41604 22.3353 3.98356L4.41396 21.5022C1.78742 24.0697 0.34082 27.4834 0.34082 31.1145V55.8894C0.34082 59.5207 1.78742 62.9342 4.41396 65.5017L22.3353 83.0203C24.9618 85.5879 28.454 87.002 32.1686 87.002H57.5131C61.2278 87.002 64.7198 85.5879 67.3465 83.0205L72.9175 77.5747C74.2753 76.2476 74.2751 74.0959 72.9175 72.7686C71.5599 71.4414 69.3588 71.4414 68.001 72.7686L62.43 78.2144C61.1165 79.4982 59.3706 80.2052 57.5132 80.2052H32.1686C30.3112 80.2052 28.5651 79.4982 27.2518 78.2144L9.33052 60.6958C8.01724 59.4119 7.29395 57.7052 7.29395 55.8896V31.1145C7.29395 29.2989 8.01724 27.592 9.33052 26.3082L27.2518 8.78963C28.5653 7.50587 30.3112 6.79883 32.1686 6.79883H57.5131C59.3704 6.79883 61.1165 7.50587 62.4298 8.78963L80.3511 26.3082C81.6644 27.5922 82.3877 29.2989 82.3877 31.1145V55.8896C82.3877 57.7052 81.6644 59.4121 80.3511 60.6958C78.9934 62.0229 78.9935 64.1747 80.3511 65.5019C81.7087 66.8292 83.9099 66.8292 85.2677 65.5019C87.8942 62.9344 89.3408 59.5207 89.3408 55.8896V31.1145C89.3408 27.4834 87.8942 24.0697 85.2677 21.5022Z" fill="#1FDCDC"/>
<path d="M48.3174 53.8672V20.3926C48.3174 18.5156 46.7609 16.9941 44.8408 16.9941C42.9207 16.9941 41.3643 18.5156 41.3643 20.3926V53.8672C41.3643 55.7441 42.9207 57.2656 44.8408 57.2656C46.7609 57.2656 48.3174 55.7441 48.3174 53.8672Z" fill="#1FDCDC"/>
</svg>
