<svg width="96" height="96" viewBox="0 0 96 96" fill="none" xmlns="http://www.w3.org/2000/svg">
<path d="M34.4376 59.0989C30.3512 58.1713 30.2078 57.2055 30.2205 57.0238C30.3576 55.0061 34.6257 54.6427 36.366 54.5089C36.366 56.0931 37.6506 57.3776 39.2348 57.3776C40.819 57.3776 42.1035 56.0931 42.1035 54.5089C42.1035 52.9789 41.4724 51.4903 40.3695 50.4257C39.3591 49.4471 38.0937 48.9052 36.6784 48.867V48.3666C36.6784 46.7824 35.3939 45.4978 33.8097 45.4978C32.2255 45.4978 30.9409 46.7824 30.9409 48.3666V49.632C25.7804 51.1492 24.6424 54.4738 24.4958 56.6317C24.2249 60.6161 27.1414 63.3287 33.1658 64.6961C36.6848 65.4962 37.4339 66.4588 37.4243 66.7616C37.3701 68.8877 32.0597 69.1873 31.2374 69.2192C31.1864 67.6796 29.9209 66.4365 28.3718 66.4365H28.359C26.778 66.4429 25.503 67.7115 25.503 69.2925C25.503 70.8384 26.115 72.2824 27.2275 73.3597C28.222 74.3192 29.5575 74.8706 30.9409 74.9344V75.4252C30.9409 77.0094 32.2255 78.294 33.8097 78.294C35.3939 78.294 36.6784 77.0094 36.6784 75.4252V74.1662C42.282 72.5119 43.114 68.7379 43.1618 66.9114C43.2638 63.0705 40.3281 60.4376 34.4376 59.0989Z" fill="#8CB581"/>
<path d="M93.0527 34.0994C93.0527 16.769 78.9512 2.67065 61.6239 2.67065C45.339 2.67065 32.1204 14.7704 30.4215 30.6569C14.6848 32.359 2.39062 45.7178 2.39062 61.9008C2.39062 79.2344 16.4921 93.3327 33.8257 93.3327C50.0087 93.3327 63.3675 81.0385 65.0696 65.2987C80.9529 63.6029 93.0527 50.3843 93.0527 34.0994ZM61.6208 8.40815C75.786 8.40815 87.312 19.931 87.312 34.0994C87.312 47.1713 77.7782 57.8303 65.1366 59.5229C63.9731 44.0858 51.6343 31.747 36.1973 30.5836C37.8898 17.942 48.552 8.40815 61.6208 8.40815ZM33.8226 87.592C19.6541 87.592 8.12494 76.066 8.12494 61.8976C8.12494 47.7292 19.6541 36.2 33.8226 36.2C47.991 36.2 59.517 47.726 59.517 61.8976C59.517 76.066 47.991 87.592 33.8226 87.592Z" fill="#8CB581"/>
<path d="M5.96406 26.6214V22.2928C5.96406 17.1673 10.1333 12.9981 15.2588 12.9981H19.6129L17.9554 14.6556C16.8334 15.7776 16.8334 17.5944 17.9554 18.7132C18.5164 19.2742 19.2496 19.5547 19.9827 19.5547C20.7158 19.5547 21.4489 19.2742 22.0099 18.7132L28.5666 12.1566C28.8312 11.892 29.0416 11.5764 29.185 11.2226C29.4751 10.5214 29.4751 9.73087 29.185 9.02962C29.0384 8.679 28.8312 8.36025 28.5666 8.09568L22.0131 1.54218C20.8911 0.420184 19.0774 0.420184 17.9586 1.54218C16.8398 2.66418 16.8366 4.48106 17.9586 5.59987L19.6161 7.25737H15.2588C6.96812 7.25737 0.226562 14.0021 0.226562 22.2928V26.6214C0.226562 28.2056 1.51112 29.4902 3.09531 29.4902C4.6795 29.4902 5.96406 28.2056 5.96406 26.6214Z" fill="#8CB581"/>
<path d="M92.3456 66.5098C90.7614 66.5098 89.4768 67.7943 89.4768 69.3785V73.7071C89.4768 78.8326 85.3076 83.0019 80.1853 83.0019H75.828L77.4855 81.3444C78.6075 80.2224 78.6075 78.4055 77.4855 77.2867C76.3635 76.1679 74.5466 76.1647 73.4278 77.2867L66.8711 83.8434C66.852 83.8625 66.8488 83.888 66.8296 83.9071C66.5906 84.159 66.3898 84.449 66.2527 84.7773C65.9626 85.4786 65.9626 86.2723 66.2527 86.9735C66.3898 87.3018 66.5906 87.5887 66.8296 87.8437C66.8488 87.8628 66.852 87.8883 66.8711 87.9075L73.4278 94.4641C73.9888 95.0251 74.7219 95.3056 75.4582 95.3056C76.1945 95.3056 76.9276 95.0251 77.4886 94.4641C78.6106 93.3421 78.6106 91.5253 77.4886 90.4065L75.8311 88.749H80.1885C88.476 88.749 95.2207 82.0042 95.2207 73.7135V69.3849C95.2143 67.7943 93.9298 66.5098 92.3456 66.5098Z" fill="#8CB581"/>
</svg>
