<svg width="70" height="70" viewBox="0 0 70 70" fill="none" xmlns="http://www.w3.org/2000/svg">
<path fill-rule="evenodd" clip-rule="evenodd" d="M70 35C70 54.33 54.33 70 35 70C15.67 70 0 54.33 0 35C0 15.67 15.67 0 35 0C54.33 0 70 15.67 70 35ZM51.9401 14.8152C51.8075 14.3483 51.3964 14 50.8868 14H46.4337C45.8184 14 45.3204 14.4979 45.3204 15.1133C45.3204 15.7286 45.8184 16.2266 46.4337 16.2266H49.0374L43.7209 22.2292C36.553 30.3375 26.0048 34.6232 15.209 33.685C14.6165 33.623 14.0576 34.0851 14.0044 34.6982C13.9511 35.3103 14.4045 35.8496 15.0176 35.9028C16.0592 35.993 16.938 36.0376 17.9763 36.0376C28.3796 36.0376 38.4469 31.555 45.3887 23.7034L49.7735 18.7545V19.5664C49.7735 20.1818 50.2715 20.6797 50.8868 20.6797C51.5022 20.6797 52.0001 20.1818 52.0001 19.5664V16.2119L51.9401 14.8152ZM49.6992 49.7747H50.8867C51.5021 49.7747 52 50.2726 52 50.8879C52 51.5033 51.5021 52.0012 50.8867 52.0012H15.1133C14.4979 52.0012 14 51.5033 14 50.8879C14 50.2726 14.4979 49.7747 15.1133 49.7747H16.3009V39.7494C16.3009 39.1352 16.7988 38.6372 17.413 38.6361C18.8568 38.634 20.3125 38.5503 21.7411 38.3872C22.0476 38.3437 22.3705 38.4513 22.6086 38.6623C22.8446 38.8731 22.9805 39.1754 22.9805 39.4928V49.7747H25.207V38.7253C25.207 38.2067 25.5647 37.7577 26.0692 37.6403C27.5304 37.3032 28.9872 36.876 30.3994 36.3726C30.7397 36.253 31.1203 36.303 31.4149 36.5107C31.7106 36.7194 31.8867 37.0586 31.8867 37.4207V49.7747H34.1133V35.5224C34.1133 35.1006 34.3514 34.7146 34.7286 34.5266C36.2203 33.7808 37.6771 32.9328 39.0589 32.0043C39.3992 31.7739 39.8417 31.7543 40.2037 31.9456C40.5657 32.1391 40.793 32.5175 40.793 32.9284V49.7747H43.0195V29.4548C43.0195 29.1395 43.1533 28.8384 43.3881 28.6274C44.6884 27.4566 45.9202 26.1813 47.0509 24.8397L47.7347 24.0276C48.0369 23.6698 48.5295 23.5416 48.9676 23.6992C49.4068 23.8601 49.6992 24.2776 49.6992 24.7451V49.7747Z" fill="#60C5EB"/>
</svg>
