<svg width="60" height="60" viewBox="0 0 60 60" fill="none" xmlns="http://www.w3.org/2000/svg">
<g clip-path="url(#clip0_49_10763)">
<path fill-rule="evenodd" clip-rule="evenodd" d="M30.0121 0.0078125C46.5796 0.0078125 60.0121 13.4443 60.0121 30.0119C60.0121 46.5795 46.5797 60.0076 30.0121 60.0076C13.4445 60.0076 0.0117188 46.5794 0.0117188 30.0119C0.0117188 13.4444 13.4433 0.0078125 30.0121 0.0078125ZM36.9284 43.6632C38.2828 43.6632 39.6069 43.2616 40.7331 42.5092C41.8594 41.7567 42.7372 40.6871 43.2555 39.4358C43.7739 38.1844 43.9096 36.8074 43.6454 35.479C43.3811 34.1505 42.7289 32.9302 41.7712 31.9725C40.8134 31.0147 39.5932 30.3624 38.2647 30.0982C36.9363 29.8339 35.5593 29.9695 34.3079 30.4878C33.0565 31.0062 31.987 31.8839 31.2344 33.0101C30.4819 34.1363 30.0803 35.4604 30.0803 36.8149C30.0823 38.6305 30.8045 40.3712 32.0883 41.655C33.3721 42.9389 35.1127 43.6611 36.9284 43.6632ZM27.2914 39.1046C27.1129 38.3542 27.0229 37.5854 27.0233 36.8141C27.0234 36.464 27.042 36.1141 27.0789 35.7659H26.1648L24.2362 39.1046H27.2914ZM14.436 32.7091H27.9149C28.8977 30.5525 30.6208 28.8196 32.7719 27.8247C34.9229 26.8297 37.3592 26.6387 39.639 27.2863V14.6619H14.436V32.7094V32.7091ZM48.1969 45.8012L44.9768 42.5812C45.7355 41.5248 46.2784 40.3292 46.5744 39.0627C46.8704 37.7962 46.9138 36.4838 46.7019 35.2005C46.49 33.9173 46.0272 32.6884 45.3398 31.5843C44.6524 30.4802 43.754 29.5224 42.696 28.766V14.6359C42.695 13.832 42.3752 13.0614 41.8067 12.4931C41.2383 11.9248 40.4676 11.6052 39.6637 11.6045H14.4105C13.6069 11.6054 12.8363 11.9251 12.268 12.4934C11.6997 13.0617 11.38 13.8322 11.379 14.6359V32.7342C11.3798 33.538 11.6995 34.3087 12.2678 34.8771C12.8361 35.4455 13.6067 35.7653 14.4105 35.7663H22.6341L20.2651 39.8693C20.131 40.1017 20.0604 40.3653 20.0604 40.6336C20.0604 40.902 20.1311 41.1656 20.2653 41.3979C20.3995 41.6303 20.5925 41.8233 20.8249 41.9574C21.0574 42.0915 21.321 42.1621 21.5893 42.162H28.595C29.3272 43.3054 30.287 44.2858 31.4145 45.0422C32.542 45.7986 33.8131 46.3148 35.1488 46.5586C36.4844 46.8025 37.8559 46.7688 39.178 46.4597C40.5 46.1505 41.7443 45.5725 42.8333 44.7617L46.0352 47.9628C46.1772 48.1047 46.3457 48.2173 46.5311 48.2942C46.7166 48.371 46.9153 48.4105 47.1161 48.4105C47.3168 48.4105 47.5155 48.371 47.701 48.2942C47.8864 48.2173 48.0549 48.1047 48.1969 47.9628C48.3388 47.8209 48.4514 47.6524 48.5282 47.4669C48.605 47.2815 48.6446 47.0827 48.6446 46.882C48.6446 46.6813 48.605 46.4825 48.5282 46.2971C48.4514 46.1116 48.3388 45.9431 48.1969 45.8012ZM27.2911 27.2558C27.5778 27.5423 27.9665 27.7032 28.3719 27.7032C28.7772 27.7032 29.1659 27.5423 29.4526 27.2558L33.8789 22.8297V24.912C33.8789 25.3174 34.0399 25.7061 34.3265 25.9927C34.6132 26.2794 35.0019 26.4404 35.4073 26.4404C35.8126 26.4404 36.2014 26.2794 36.488 25.9927C36.7746 25.7061 36.9356 25.3174 36.9356 24.912V19.2843C36.9355 18.879 36.7744 18.4902 36.4878 18.2036C36.2011 17.917 35.8124 17.7559 35.407 17.7559H29.7792C29.3738 17.7559 28.9851 17.9169 28.6984 18.2035C28.4118 18.4902 28.2507 18.879 28.2507 19.2843C28.2507 19.6897 28.4118 20.0785 28.6984 20.3651C28.9851 20.6518 29.3738 20.8128 29.7792 20.8128H31.5722L28.3719 24.0131L25.5565 21.1984C25.2698 20.9118 24.8811 20.7508 24.4757 20.7508C24.0704 20.7508 23.6816 20.9118 23.395 21.1984L17.5868 27.0066C17.3095 27.2951 17.1563 27.6808 17.1603 28.081C17.1642 28.4811 17.3249 28.8638 17.6079 29.1467C17.8909 29.4297 18.2735 29.5904 18.6736 29.5943C19.0738 29.5983 19.4595 29.4451 19.748 29.1678L24.4754 24.4398L27.2911 27.2558Z" fill="#FB9E59"/>
</g>
<defs>
<clipPath id="clip0_49_10763">
<rect width="60" height="60" fill="white"/>
</clipPath>
</defs>
</svg>
