<svg xmlns="http://www.w3.org/2000/svg" width="30" height="30" viewBox="0 0 30 30" fill="none">
  <path d="M21.9887 30H21.7732C21.3829 30 21.0003 29.9665 20.6365 29.9006C14.9074 28.8732 10.9732 26.8571 7.05774 22.9423C3.14323 19.0284 1.12645 15.0942 0.098387 9.36258C0.0332257 8.99839 0 8.61613 0 8.22613V8.01097C0 6.32968 0.654839 4.75 1.8429 3.56258L3.30387 2.10161C4.02419 1.38129 5.02097 0.967742 6.04097 0.967742H6.38226C7.53419 0.967742 8.61839 1.47516 9.35645 2.36065L12.7642 6.44935C13.2697 7.0571 13.5484 7.82742 13.5484 8.61806V8.82871C13.5484 9.59516 13.2848 10.3465 12.8055 10.9448L9.87387 14.6097C10.2784 15.2806 11.091 16.4971 12.2971 17.7029C13.5106 18.9158 14.7213 19.7248 15.3894 20.1271L19.0552 17.1942C19.6545 16.7152 20.4058 16.4516 21.1713 16.4516H21.3819C22.1729 16.4516 22.9432 16.7303 23.551 17.2371L27.6403 20.6445C28.5248 21.3819 29.0323 22.4661 29.0323 23.6181V23.9587C29.0323 24.9923 28.6297 25.9642 27.8981 26.6961L26.4371 28.1577C25.2484 29.3461 23.6681 30 21.9887 30ZM6.04097 2.90323C5.53161 2.90323 5.03258 3.10968 4.67258 3.47032L3.21161 4.93194C2.38806 5.75387 1.93548 6.84742 1.93548 8.01129V8.22645C1.93548 8.50226 1.95806 8.76935 2.00355 9.02065C2.95516 14.3277 4.81613 17.9648 8.42613 21.5739C12.0371 25.1839 15.6739 27.0442 20.9794 27.9961C21.2306 28.0413 21.4984 28.0645 21.7732 28.0645H21.9887C23.1513 28.0645 24.2455 27.6113 25.0687 26.7887L26.5297 25.3277C26.8955 24.9613 27.0968 24.4752 27.0968 23.9587V23.6181C27.0968 23.0419 26.8426 22.5 26.4003 22.131L22.311 18.7235C22.051 18.5068 21.7213 18.3871 21.3819 18.3871H21.1713C20.8432 18.3871 20.521 18.5 20.2642 18.7055L16.0887 22.0458C15.7929 22.2819 15.3884 22.3242 15.051 22.1558C14.9658 22.1132 12.9519 21.0945 10.9287 19.0713C8.90548 17.0481 7.88645 15.0335 7.84419 14.949C7.67516 14.6113 7.71839 14.2061 7.95387 13.9119L11.2945 9.73548C11.5003 9.47903 11.6129 9.1571 11.6129 8.82871V8.61806C11.6129 8.27935 11.4939 7.94903 11.2765 7.68806L7.86871 3.59968C7.5 3.1571 6.95742 2.90323 6.38194 2.90323H6.04097ZM24.1935 13.5484H22.2581C21.191 13.5484 20.3226 12.6803 20.3226 11.6129V9.67742H18.3871C17.32 9.67742 16.4516 8.80935 16.4516 7.74194V5.80645C16.4516 4.73903 17.32 3.87097 18.3871 3.87097H20.3226V1.93548C20.3226 0.868064 21.191 0 22.2581 0H24.1935C25.2606 0 26.129 0.868064 26.129 1.93548V3.87097H28.0645C29.1316 3.87097 30 4.73903 30 5.80645V7.74194C30 8.80935 29.1316 9.67742 28.0645 9.67742H26.129V11.6129C26.129 12.6803 25.2606 13.5484 24.1935 13.5484ZM18.3871 5.80645V7.74194H21.2903C21.8252 7.74194 22.2581 8.17516 22.2581 8.70968V11.6129H24.1935V8.70968C24.1935 8.17516 24.6265 7.74194 25.1613 7.74194H28.0645V5.80645H25.1613C24.6265 5.80645 24.1935 5.37323 24.1935 4.83871V1.93548H22.2581V4.83871C22.2581 5.37323 21.8252 5.80645 21.2903 5.80645H18.3871Z" fill="white"/>
</svg>