<svg width="42" height="42" viewBox="0 0 42 42" fill="none" xmlns="http://www.w3.org/2000/svg">
<path d="M31.1658 0H18.6533C11.1792 0 8.71905 4.13246 8.05962 8.04074C4.14157 8.69958 0 11.1541 0 18.6085V26.4108C0 35.4093 4.14538 37.217 10.8322 37.217L11.5578 37.2131C11.6017 37.2226 11.6953 37.2816 11.6933 37.256L14.0381 40.3742C14.3735 40.8742 14.8272 41.2841 15.3591 41.5677C15.8909 41.8512 16.4846 41.9997 17.0877 42C17.6908 42.0003 18.2846 41.8524 18.8168 41.5693C19.3489 41.2862 19.803 40.8768 20.1388 40.3771L22.5638 37.2171H23.3448C30.8508 37.2171 33.3 33.0533 33.9422 29.1758C37.8607 28.5161 42 26.061 42 18.6086V10.8063C42 3.73636 38.2537 0 31.1658 0ZM31.246 26.4107C31.249 26.8582 31.2242 27.3054 31.1715 27.7498C30.7916 32.2129 28.3036 34.2911 23.3447 34.2911H22.5638C22.0937 34.2918 21.6302 34.4014 21.2098 34.6111C20.7893 34.8208 20.4234 35.125 20.1407 35.4997L17.7921 38.6237C17.7274 38.7549 17.627 38.8654 17.5025 38.9425C17.3779 39.0197 17.2342 39.0604 17.0876 39.0601C16.941 39.0598 16.7974 39.0185 16.6732 38.9408C16.5489 38.8632 16.4491 38.7523 16.3849 38.6208L14.0305 35.4892C13.7376 35.1279 13.3701 34.8338 12.9529 34.627C12.5357 34.4203 12.0788 34.3057 11.6132 34.2912H10.8322C5.00267 34.2912 2.9329 33.1007 2.9329 26.4109V18.6087C2.9329 13.6636 5.0161 11.1826 9.5491 10.7949C9.97501 10.7462 10.4036 10.7239 10.8322 10.7283H23.3448C28.8096 10.7283 31.2461 13.1589 31.2461 18.6086L31.246 26.4107ZM39.0671 18.6084C39.0671 22.8905 37.5033 25.325 34.1789 26.1488V18.6085C34.1789 11.5386 30.4326 7.80236 23.3448 7.80236H11.0938C11.9187 4.48504 14.3589 2.92593 18.6533 2.92593H31.1658C36.6307 2.92593 39.0671 5.35652 39.0671 10.8062V18.6084ZM19.0467 23.2935C19.0472 23.5495 18.997 23.803 18.8992 24.0396C18.8013 24.2763 18.6577 24.4913 18.4764 24.6725C18.2952 24.8537 18.0799 24.9974 17.8429 25.0955C17.6059 25.1936 17.3518 25.2441 17.0952 25.2441H17.0875C16.7009 25.2433 16.3233 25.1282 16.0023 24.9134C15.6812 24.6986 15.4312 24.3937 15.2838 24.0372C15.1364 23.6808 15.0983 23.2887 15.1742 22.9106C15.2501 22.5325 15.4366 22.1853 15.7102 21.9129C15.9838 21.6405 16.3322 21.4551 16.7114 21.3801C17.0905 21.3052 17.4835 21.344 17.8405 21.4918C18.1976 21.6395 18.5027 21.8895 18.7174 22.2102C18.9321 22.5309 19.0467 22.9079 19.0467 23.2935ZM25.2982 23.2935C25.2987 23.5495 25.2485 23.803 25.1507 24.0396C25.0529 24.2763 24.9092 24.4913 24.728 24.6725C24.5467 24.8537 24.3314 24.9974 24.0944 25.0955C23.8574 25.1936 23.6034 25.244 23.3468 25.2441H23.3372C22.9508 25.2429 22.5733 25.1276 22.2525 24.9126C21.9317 24.6975 21.682 24.3925 21.5349 24.036C21.3878 23.6795 21.3499 23.2875 21.426 22.9095C21.5021 22.5315 21.6887 22.1844 21.9624 21.9122C22.2361 21.64 22.5845 21.4548 22.9636 21.38C23.3427 21.3052 23.7356 21.3442 24.0925 21.492C24.4495 21.6398 24.7545 21.8898 24.9691 22.2104C25.1837 22.5311 25.2982 22.908 25.2982 23.2935ZM12.7971 23.2935C12.7975 23.5495 12.7474 23.803 12.6496 24.0396C12.5517 24.2763 12.4081 24.4913 12.2268 24.6725C12.0456 24.8537 11.8303 24.9974 11.5933 25.0955C11.3563 25.1936 11.1022 25.2441 10.8456 25.2441H10.8379C10.4514 25.2433 10.0737 25.1282 9.75269 24.9134C9.43167 24.6986 9.18166 24.3937 9.03427 24.0372C8.88688 23.6808 8.84872 23.2887 8.9246 22.9106C9.00049 22.5325 9.18702 22.1853 9.46062 21.9129C9.73423 21.6405 10.0826 21.4551 10.4618 21.3801C10.841 21.3052 11.2339 21.344 11.591 21.4918C11.948 21.6395 12.2532 21.8895 12.4678 22.2102C12.6825 22.5309 12.7971 22.9079 12.7971 23.2935Z" fill="white"/>
</svg>
