<svg width="24" height="25" viewBox="0 0 24 25" fill="none" xmlns="http://www.w3.org/2000/svg">
<path d="M17.8091 0H10.659C6.38813 0 4.98231 2.36709 4.60549 4.60577C2.36661 4.98316 0 6.38912 0 10.659V15.1282C0 20.2826 2.36879 21.3181 6.18982 21.3181L6.60445 21.3158C6.62954 21.3213 6.68301 21.3551 6.68191 21.3404L8.02179 23.1266C8.21343 23.413 8.47267 23.6478 8.7766 23.8102C9.08054 23.9726 9.4198 24.0576 9.76441 24.0578C10.109 24.058 10.4484 23.9732 10.7524 23.8111C11.0565 23.649 11.316 23.4144 11.5079 23.1282L12.8936 21.3181H13.3399C17.629 21.3181 19.0286 18.9331 19.3955 16.712C21.6347 16.3342 24 14.9278 24 10.6591V6.18991C24 2.1402 21.8592 0 17.8091 0ZM17.8549 15.1282C17.8566 15.3845 17.8424 15.6407 17.8123 15.8952C17.5952 18.4517 16.1735 19.6421 13.3399 19.6421H12.8936C12.625 19.6425 12.3601 19.7053 12.1199 19.8254C11.8796 19.9455 11.6705 20.1198 11.509 20.3344L10.1669 22.1238C10.1299 22.199 10.0726 22.2623 10.0014 22.3065C9.93025 22.3507 9.84811 22.374 9.76434 22.3738C9.68056 22.3737 9.59852 22.35 9.52753 22.3055C9.45654 22.261 9.39946 22.1975 9.36277 22.1222L8.01744 20.3284C7.85008 20.1214 7.64005 19.953 7.40166 19.8345C7.16327 19.7161 6.90214 19.6505 6.63609 19.6422H6.18982C2.85867 19.6422 1.67594 18.9602 1.67594 15.1283V10.6591C1.67594 7.8266 2.86634 6.40544 5.45663 6.1834C5.70001 6.15547 5.94489 6.14272 6.18985 6.14521H13.3399C16.4627 6.14521 17.8549 7.53746 17.8549 10.6591L17.8549 15.1282ZM22.324 10.659C22.324 13.1118 21.4304 14.5063 19.5308 14.9782V10.659C19.5308 6.60939 17.3901 4.46923 13.3399 4.46923H6.3393C6.81067 2.56905 8.20511 1.67599 10.659 1.67599H17.8091C20.9318 1.67599 22.324 3.06824 22.324 6.18986V10.659ZM10.8838 13.3426C10.8841 13.4892 10.8555 13.6345 10.7995 13.77C10.7436 13.9056 10.6615 14.0288 10.558 14.1325C10.4544 14.2363 10.3314 14.3186 10.1959 14.3748C10.0605 14.431 9.91531 14.4599 9.76869 14.4599H9.76427C9.54339 14.4595 9.32759 14.3936 9.14415 14.2705C8.9607 14.1475 8.81784 13.9728 8.73362 13.7686C8.6494 13.5645 8.62759 13.3399 8.67095 13.1233C8.71432 12.9067 8.8209 12.7078 8.97725 12.5518C9.13359 12.3958 9.33268 12.2896 9.54935 12.2466C9.76603 12.2037 9.99056 12.226 10.1946 12.3106C10.3986 12.3952 10.573 12.5384 10.6957 12.7221C10.8183 12.9058 10.8838 13.1217 10.8838 13.3426ZM14.4561 13.3426C14.4564 13.4892 14.4277 13.6345 14.3718 13.77C14.3159 13.9056 14.2338 14.0287 14.1303 14.1325C14.0267 14.2363 13.9037 14.3186 13.7682 14.3748C13.6328 14.431 13.4876 14.4599 13.341 14.4599H13.3356C13.1147 14.4593 12.899 14.3932 12.7157 14.27C12.5324 14.1469 12.3897 13.9721 12.3057 13.7679C12.2216 13.5637 12.1999 13.3392 12.2434 13.1227C12.2869 12.9061 12.3936 12.7074 12.5499 12.5514C12.7063 12.3955 12.9054 12.2894 13.1221 12.2466C13.3387 12.2037 13.5632 12.226 13.7672 12.3107C13.9711 12.3954 14.1454 12.5386 14.2681 12.7222C14.3907 12.9059 14.4561 13.1218 14.4561 13.3426ZM7.3126 13.3426C7.31289 13.4892 7.28425 13.6345 7.22834 13.77C7.17243 13.9056 7.09033 14.0288 6.98676 14.1325C6.88318 14.2363 6.76015 14.3186 6.62472 14.3748C6.48929 14.431 6.34411 14.4599 6.19748 14.4599H6.19309C5.97221 14.4595 5.75641 14.3936 5.57297 14.2705C5.38952 14.1475 5.24666 13.9728 5.16244 13.7686C5.07822 13.5645 5.05641 13.3399 5.09977 13.1233C5.14314 12.9067 5.24972 12.7078 5.40607 12.5518C5.56242 12.3958 5.7615 12.2896 5.97817 12.2466C6.19485 12.2037 6.41938 12.226 6.62341 12.3106C6.82744 12.3952 7.00181 12.5384 7.12448 12.7221C7.24715 12.9058 7.3126 13.1217 7.3126 13.3426Z" fill="white"/>
</svg>
