<svg xmlns="http://www.w3.org/2000/svg" width="19" height="23" viewBox="0 0 19 23" fill="none">
  <path fill-rule="evenodd" clip-rule="evenodd" d="M18.684 6.76243C18.684 6.01299 18.3859 5.29439 17.8564 4.76393C16.8664 3.77495 14.9091 1.81757 13.9201 0.82757C13.3896 0.298131 12.671 0 11.9216 0C10.58 0 7.89168 0 5.57654 0C4.28121 0 3.03934 0.514019 2.12336 1.43C1.20738 2.34598 0.693359 3.58785 0.693359 4.88318V17.6595C0.693359 20.356 2.88 22.5426 5.57654 22.5426H13.8008C16.4974 22.5426 18.684 20.356 18.684 17.6595C18.684 14.6895 18.684 8.42374 18.684 6.76243ZM12.0018 1.54411C11.975 1.54308 11.9483 1.54206 11.9216 1.54206C10.58 1.54206 7.89168 1.54206 5.57654 1.54206C4.69037 1.54206 3.84018 1.89365 3.21411 2.52075C2.587 3.14682 2.23542 3.99701 2.23542 4.88318V17.6595C2.23542 19.5048 3.73121 21.0006 5.57654 21.0006H13.8008C15.6462 21.0006 17.142 19.5048 17.142 17.6595C17.142 14.6895 17.142 8.42374 17.142 6.76243C17.142 6.7357 17.1409 6.70897 17.1399 6.68224H14.8289C14.0794 6.68224 13.3598 6.38411 12.8293 5.85467C12.2999 5.32421 12.0018 4.60458 12.0018 3.85514V1.54411ZM16.0512 5.14019L13.5438 2.6328V3.85514C13.5438 4.19645 13.6795 4.52234 13.9201 4.76393C14.1617 5.00449 14.4876 5.14019 14.8289 5.14019H16.0512Z" fill="#161E29"/>
  <path fill-rule="evenodd" clip-rule="evenodd" d="M9.68622 9.69141H9.70472C9.77566 9.69346 9.84454 9.70477 9.9093 9.7243L9.91136 9.72533C10.0286 9.76028 10.1386 9.82505 10.2311 9.91757L12.2872 11.9736C12.5884 12.2738 12.5884 12.7632 12.2872 13.0634C11.987 13.3646 11.4976 13.3646 11.1974 13.0634L10.4572 12.3242V15.6026C10.4572 16.0282 10.1118 16.3737 9.68622 16.3737C9.26061 16.3737 8.91519 16.0282 8.91519 15.6026V12.3242L8.17501 13.0634C7.87482 13.3646 7.38547 13.3646 7.08529 13.0634C6.78407 12.7632 6.78407 12.2738 7.08529 11.9736L9.14136 9.91757C9.23388 9.82505 9.34388 9.76028 9.46108 9.72533L9.46314 9.7243C9.5279 9.70477 9.59678 9.69346 9.66772 9.69141H9.68622Z" fill="#161E29"/>
</svg>