<svg xmlns="http://www.w3.org/2000/svg" width="14" height="20" viewBox="0 0 14 20" fill="none">
  <path d="M2.4351 0.640625H8.69826L14 6.17199V16.9243C14 18.2693 12.9099 19.3594 11.5649 19.3594H2.4351C1.09011 19.3594 0 18.2693 0 16.9243V3.07573C0 1.73075 1.09011 0.640625 2.4351 0.640625Z" fill="#0263D1"/>
  <path opacity="0.302" fill-rule="evenodd" clip-rule="evenodd" d="M8.69043 0.640625V6.12656H13.9997L8.69043 0.640625Z" fill="white"/>
  <path d="M2.26074 13.9974V10.8986H3.35844C3.57797 10.8986 3.78239 10.9314 3.97164 10.992C4.1609 11.0551 4.33249 11.1459 4.48643 11.2671C4.64036 11.3882 4.7615 11.5497 4.84981 11.7515C4.93813 11.9534 4.98356 12.1856 4.98356 12.448C4.98356 12.7104 4.93813 12.9426 4.84981 13.1445C4.7615 13.3463 4.64036 13.5078 4.48643 13.629C4.33251 13.7501 4.1609 13.8409 3.97164 13.904C3.78239 13.9646 3.57799 13.9974 3.35844 13.9974H2.26074ZM3.03544 13.3236H3.26507C3.38871 13.3236 3.50479 13.3085 3.60824 13.2807C3.71422 13.2505 3.81011 13.2025 3.90095 13.1394C3.99179 13.0763 4.06244 12.9855 4.11291 12.8669C4.16591 12.7508 4.19113 12.6095 4.19113 12.448C4.19113 12.2865 4.16589 12.1452 4.11291 12.0266C4.06244 11.9105 3.99179 11.8197 3.90095 11.7566C3.81011 11.691 3.71422 11.6456 3.60824 11.6153C3.50479 11.5875 3.38871 11.5724 3.26507 11.5724H3.03544V13.3236ZM6.8635 14.0327C6.39667 14.0327 6.01059 13.8813 5.70525 13.581C5.39991 13.2807 5.2485 12.9022 5.2485 12.448C5.2485 11.9938 5.39991 11.6153 5.70525 11.315C6.01059 11.0147 6.39667 10.8633 6.8635 10.8633C7.32275 10.8633 7.7038 11.0147 8.00913 11.315C8.31194 11.6153 8.46335 11.9938 8.46335 12.448C8.46335 12.9022 8.31194 13.2808 8.00913 13.581C7.7038 13.8813 7.32275 14.0327 6.8635 14.0327ZM6.26796 13.1016C6.42188 13.2732 6.61871 13.359 6.85843 13.359C7.09816 13.359 7.29246 13.2732 7.4464 13.1016C7.60032 12.9275 7.67603 12.7104 7.67603 12.448C7.67603 12.1856 7.60032 11.9685 7.4464 11.7944C7.29248 11.6228 7.09816 11.537 6.85843 11.537C6.61871 11.537 6.42188 11.6228 6.26796 11.7944C6.11404 11.9685 6.0358 12.1856 6.0358 12.448C6.0358 12.7104 6.11404 12.9275 6.26796 13.1016ZM10.3054 14.0327C9.85376 14.0327 9.47775 13.8914 9.18001 13.6138C8.87971 13.3337 8.73085 12.9451 8.73085 12.448C8.73085 11.9534 8.88226 11.5648 9.18507 11.2847C9.49041 11.0046 9.86135 10.8633 10.3055 10.8633C10.7067 10.8633 11.0347 10.9617 11.2947 11.161C11.5521 11.3579 11.7009 11.6203 11.7388 11.9483L10.9565 12.1073C10.9237 11.9357 10.8455 11.797 10.7244 11.6935C10.6032 11.59 10.4619 11.537 10.3004 11.537C10.0784 11.537 9.89413 11.6153 9.74525 11.7742C9.59636 11.9357 9.52066 12.1578 9.52066 12.448C9.52066 12.7382 9.59636 12.9602 9.74272 13.1192C9.8916 13.2807 10.0758 13.359 10.3004 13.359C10.4619 13.359 10.6007 13.3135 10.7142 13.2227C10.8278 13.1319 10.8985 13.0107 10.9287 12.8593L11.7287 13.041C11.6555 13.3539 11.494 13.5962 11.2416 13.7703C10.9918 13.9444 10.6789 14.0327 10.3054 14.0327Z" fill="white"/>
</svg>