<svg xmlns="http://www.w3.org/2000/svg" width="40" height="40" viewBox="0 0 40 40" fill="none">
  <path d="M28.2812 0H11.7188C5.24666 0 0 5.24666 0 11.7188V28.2812C0 34.7533 5.24666 40 11.7188 40H28.2812C34.7533 40 40 34.7533 40 28.2812V11.7188C40 5.24666 34.7533 0 28.2812 0Z" fill="#7A69FE"/>
  <path d="M35.2344 21.7871C35.2344 25.5145 32.2133 28.5355 28.4859 28.5355H22.4555V22.5621L22.6602 22.7668C23.1242 23.2309 23.7406 23.4863 24.3961 23.4863C25.0516 23.4863 25.6687 23.2309 26.132 22.7668C27.0891 21.8098 27.0891 20.252 26.132 19.2941L21.7359 14.898C21.2719 14.434 20.6555 14.1785 20 14.1785C19.3445 14.1785 18.7273 14.434 18.2641 14.898L13.868 19.2941C12.9109 20.2512 12.9109 21.809 13.868 22.7668C14.332 23.2309 14.9484 23.4863 15.6039 23.4863C16.2594 23.4863 16.8766 23.2309 17.3398 22.7668L17.5445 22.5621V28.5355H10.5734C7.36562 28.5355 4.76562 25.9355 4.76562 22.7277C4.76562 20.3988 6.13672 18.391 8.11562 17.4652C7.90078 16.9746 7.78125 16.434 7.78125 15.8645C7.78125 13.6559 9.57187 11.8652 11.7805 11.8652C12.3508 11.8652 12.893 11.9855 13.3836 12.2004C14.6422 9.49258 17.3852 7.61523 20.568 7.61523C24.775 7.61523 28.2148 10.8965 28.4711 15.0387H28.4867C32.2141 15.0387 35.2352 18.0598 35.2352 21.7871H35.2344ZM14.4203 22.2145C15.0742 22.8684 16.1344 22.8684 16.7875 22.2145L18.3258 20.6762V30.7082C18.3258 31.6324 19.075 32.3824 20 32.3824C20.9242 32.3824 21.6742 31.6332 21.6742 30.7082V20.6762L23.2125 22.2145C23.8664 22.8684 24.9266 22.8684 25.5797 22.2145C26.2336 21.5605 26.2336 20.5004 25.5797 19.8473L21.1836 15.4512C20.5297 14.7973 19.4695 14.7973 18.8164 15.4512L14.4203 19.8473C13.7664 20.5012 13.7664 21.5613 14.4203 22.2145Z" fill="white"/>
</svg>