<svg version="1.2" xmlns="http://www.w3.org/2000/svg" viewBox="0 0 121 19" width="121" height="19">
	<title>logo-svg</title>
	<style>
		.s0 { fill: #0d6bd0 } 
	</style>
	<path id="Layer" fill-rule="evenodd" class="s0" d="m0.7 18v-17.6h2.8l6.2 9.7 6.2-9.7h2.9v17.6h-4l0.1-9.8-3.9 6h-2.6l-3.8-6v9.8zm9-7.9l-0.7 1.1h1.4zm5.2-1.8l0.7-1.1-0.7-0.2zm-10.3 0v-1.3l-0.7 0.2zm23.1 9.8l-6.8-17.7h4.2l4.3 12 4.4-12h4.1l-6.8 17.7zm1.7-5.7l-0.9 2.3h1.7zm17.5-3.7q0.7 0 1.3-0.3 0.6-0.3 0.9-0.9 0.4-0.6 0.4-1.4 0-0.8-0.4-1.4-0.1-0.1-0.2-0.2-0.1-0.2-0.2-0.3-0.1-0.1-0.2-0.2-0.2-0.1-0.3-0.1-0.6-0.3-1.3-0.3h-2.9v5.1zm0.6-8.2q1.6 0 3 0.7 1.3 0.7 2.1 1.9 0.8 1.3 0.8 3 0 1.7-0.8 3-0.2 0.3-0.4 0.6-0.3 0.3-0.5 0.5-0.3 0.3-0.6 0.5-0.3 0.2-0.6 0.4-1.4 0.6-3 0.6h-3.5v6.5h-3.9v-17.7zm21 17.9q-2 0-3.7-0.6-0.4-0.2-0.8-0.4-0.4-0.2-0.7-0.5-0.4-0.2-0.8-0.5-0.3-0.3-0.6-0.6-0.3-0.3-0.6-0.6-0.3-0.4-0.5-0.8-0.3-0.3-0.5-0.7-0.2-0.4-0.4-0.8-0.2-0.4-0.3-0.9-0.1-0.4-0.2-0.9-0.1-0.4-0.1-0.9-0.1-0.4-0.1-0.9 0-1.9 0.7-3.6 0.4-0.8 0.8-1.5 0.5-0.8 1.2-1.4 0.6-0.6 1.3-1.1 0.8-0.5 1.6-0.8 1.7-0.7 3.7-0.7 2.1 0 3.7 0.7 0.4 0.2 0.8 0.4 0.4 0.2 0.7 0.4 0.4 0.2 0.7 0.5 0.4 0.3 0.7 0.6l-2.7 2.6q-0.1-0.2-0.3-0.4-0.2-0.1-0.4-0.3-0.3-0.1-0.5-0.2-0.2-0.2-0.5-0.3-0.9-0.4-2.2-0.4-1.2 0-2.2 0.4-0.2 0.1-0.4 0.2-0.2 0.1-0.4 0.3-0.2 0.1-0.4 0.3-0.2 0.1-0.4 0.3-0.2 0.2-0.3 0.4-0.2 0.2-0.3 0.4-0.2 0.2-0.3 0.5-0.1 0.2-0.2 0.5-0.1 0.2-0.1 0.5-0.1 0.3-0.2 0.6 0 0.2 0 0.5-0.1 0.3-0.1 0.6 0 1.3 0.4 2.3 0.1 0.2 0.2 0.4 0.1 0.3 0.3 0.5 0.1 0.2 0.3 0.4 0.1 0.2 0.3 0.4 0.2 0.2 0.4 0.4 0.2 0.1 0.4 0.3 0.2 0.1 0.4 0.2 0.2 0.2 0.4 0.3 1 0.4 2.2 0.4 1.3 0 2.3-0.5 0.3-0.1 0.5-0.2 0.2-0.1 0.4-0.3 0.3-0.1 0.5-0.3 0.2-0.2 0.3-0.3l2.7 2.6q-0.3 0.3-0.7 0.6-0.3 0.2-0.7 0.5-0.4 0.2-0.7 0.4-0.4 0.2-0.8 0.4-1.7 0.6-3.8 0.6zm13.3 0q-1.7 0-3-0.8-1.3-0.8-2.1-2.3-0.7-1.4-0.7-3.2 0-1.8 0.7-3.3 0.8-1.4 2.1-2.2 1.3-0.8 3-0.8 1.2 0 2.2 0.4 0.3 0.1 0.5 0.3 0.2 0.1 0.4 0.3 0.1 0.1 0.3 0.2v-1h3.7v12.2c0 0-3.7 0-3.7 0v-1q-0.5 0.4-1.2 0.7-1 0.5-2.2 0.5zm0.8-3.4q1.2 0 2-0.8 0.7-0.9 0.7-2.1 0-0.9-0.3-1.5-0.1-0.2-0.2-0.3-0.1-0.2-0.2-0.3-0.2-0.1-0.3-0.2-0.1-0.1-0.3-0.2-0.6-0.4-1.4-0.4-0.8 0-1.4 0.4-0.6 0.3-1 1-0.3 0.6-0.3 1.5 0 0.8 0.3 1.5 0.4 0.6 1 1 0.6 0.4 1.4 0.4zm9 3.2v-12.2h3.8v0.9q1.2-1.1 3.2-1.1 0.8 0 1.5 0.2 0.7 0.3 1.2 0.8l-2.3 2.9q-0.1-0.1-0.2-0.1 0-0.1-0.1-0.1-0.1-0.1-0.2-0.1-0.1-0.1-0.1-0.1-0.4-0.2-0.9-0.2-0.9 0-1.5 0.6-0.6 0.6-0.6 1.8v6.7zm16.4 0.2q-2 0-3.6-0.8-0.3-0.2-0.7-0.4-0.3-0.3-0.6-0.5-0.3-0.3-0.6-0.7-0.2-0.3-0.5-0.6-0.8-1.5-0.8-3.3 0-1.8 0.8-3.3 0.2-0.3 0.5-0.7 0.2-0.3 0.5-0.6 0.3-0.3 0.7-0.5 0.3-0.2 0.7-0.4 1.4-0.9 3.3-0.9 1.8 0 3.2 0.8 0.3 0.2 0.6 0.4 0.3 0.3 0.6 0.5 0.3 0.3 0.5 0.6 0.2 0.3 0.4 0.7 0.8 1.3 0.8 3.1 0 0.3 0 0.7 0 0.1-0.1 0.2 0 0.1 0 0.2 0 0.1 0 0.2 0 0.1-0.1 0.2h-8.7q0.1 0.3 0.2 0.6 0.4 0.8 1.1 1.2 0.8 0.4 1.7 0.4 0.9 0 1.7-0.3 0.1-0.1 0.3-0.2 0.2-0.1 0.3-0.2 0.2-0.2 0.4-0.3 0.1-0.1 0.2-0.3l2.1 2.1q-0.2 0.3-0.4 0.5-0.3 0.2-0.6 0.4-0.2 0.2-0.5 0.4-0.3 0.2-0.6 0.3-1.3 0.5-2.8 0.5zm-3.1-5.1q-0.1-0.5-0.1-1.2 0-0.8 0.1-1.4h-1.7v2.7zm5.3-2.7q0.1 0.5 0.1 1.1l1.6-1.1zm-0.2-0.6q-0.3-0.7-0.9-1.1-0.5-0.4-1.4-0.4-0.9 0.1-1.6 0.5-0.6 0.4-1 1.1-0.1 0.3-0.2 0.5h5.3q0-0.3-0.2-0.6zm8.1 8.3q-1 0-1.7-0.7-0.1-0.1-0.2-0.3-0.2-0.2-0.3-0.4 0-0.2-0.1-0.4 0-0.2 0-0.5 0-1 0.6-1.6 0.7-0.7 1.7-0.7 1 0 1.6 0.7 0.6 0.6 0.6 1.6 0 0.3 0 0.5 0 0.2-0.1 0.4-0.1 0.2-0.2 0.4-0.2 0.2-0.3 0.3-0.6 0.7-1.6 0.7z"/>
</svg>