<svg xmlns="http://www.w3.org/2000/svg" width="13" height="18" viewBox="0 0 13 18" fill="none">
  <path fill-rule="evenodd" clip-rule="evenodd" d="M2.12484 7.50037C2.12276 7.405 2.12153 7.303 2.12153 7.19531C2.12153 6.53054 2.1685 5.62786 2.36442 4.7123C2.55867 3.80453 2.9123 2.82226 3.56784 2.05642C4.24602 1.26412 5.20953 0.75 6.5 0.75C7.79047 0.75 8.75398 1.26412 9.43215 2.05642C10.0877 2.82226 10.4413 3.80453 10.6356 4.7123C10.8315 5.62786 10.8785 6.53054 10.8785 7.19531C10.8785 7.303 10.8772 7.405 10.8751 7.50037C12.0524 7.52355 13 8.52187 13 9.75V15C13 16.2427 12.03 17.25 10.8333 17.25H2.16667C0.970053 17.25 0 16.2427 0 15V9.75C0 8.52187 0.947527 7.52355 2.12484 7.50037ZM9.43027 7.5C9.43258 7.40599 9.43403 7.30401 9.43403 7.19531C9.43403 6.59446 9.39069 5.80964 9.22552 5.0377C9.05869 4.25797 8.78034 3.55274 8.35257 3.05296C7.94741 2.57963 7.3762 2.25 6.5 2.25C5.6238 2.25 5.05259 2.57963 4.64743 3.05296C4.21964 3.55274 3.94133 4.25797 3.77447 5.0377C3.60928 5.80964 3.56597 6.59446 3.56597 7.19531C3.56597 7.30401 3.56739 7.40599 3.56969 7.5H9.43027ZM11.5556 9.75C11.5556 9.33578 11.2322 9 10.8333 9H2.16667C1.7678 9 1.44444 9.33578 1.44444 9.75V15C1.44444 15.4142 1.7678 15.75 2.16667 15.75H10.8333C11.2322 15.75 11.5556 15.4142 11.5556 15V9.75Z" fill="#161E29"/>
</svg>