<svg width="121" height="19" viewBox="0 0 121 19" fill="none" xmlns="http://www.w3.org/2000/svg"><path d="M.7 18V.35h2.8l6.95 10.825H9.025L15.95.35h2.825V18H14.85V6.975l.7.175-4.525 7.05h-2.6l-4.5-7.05.675-.175V18H.7Zm26.96 0L20.86.35h4.2l5.175 14.275H28.51L33.76.35h4.15L31.035 18H27.66Zm15.322-6.425v-3.05h3.8c.484 0 .925-.1 1.325-.3.4-.2.717-.492.95-.875.234-.383.35-.85.35-1.4 0-.533-.116-.992-.35-1.375a2.29 2.29 0 0 0-.95-.875c-.4-.2-.841-.3-1.325-.3h-3.8V.35h4.375c1.117 0 2.125.225 3.025.675.9.45 1.609 1.1 2.125 1.95.534.833.8 1.825.8 2.975 0 1.15-.266 2.15-.8 3a5.337 5.337 0 0 1-2.125 1.95c-.9.45-1.908.675-3.025.675h-4.375Zm-3 6.425V.35h3.925V18h-3.925Zm28.395.275c-1.317 0-2.542-.225-3.675-.675a9.289 9.289 0 0 1-2.95-1.95 9.067 9.067 0 0 1-1.95-2.9 9.241 9.241 0 0 1-.7-3.6c0-1.283.233-2.475.7-3.575a8.716 8.716 0 0 1 4.875-4.8c1.133-.467 2.358-.7 3.675-.7 1.4 0 2.641.225 3.725.675a9.065 9.065 0 0 1 2.875 1.85l-2.625 2.65a4.93 4.93 0 0 0-1.7-1.175c-.65-.283-1.409-.425-2.275-.425-.767 0-1.475.133-2.125.4a4.626 4.626 0 0 0-1.65 1.1 5.433 5.433 0 0 0-1.075 1.75 6.504 6.504 0 0 0-.375 2.25c0 .833.125 1.592.375 2.275a5.433 5.433 0 0 0 1.075 1.75 4.922 4.922 0 0 0 1.65 1.125c.65.267 1.358.4 2.125.4.9 0 1.683-.142 2.35-.425a5.197 5.197 0 0 0 1.725-1.175l2.65 2.65a9.69 9.69 0 0 1-2.925 1.85c-1.084.45-2.342.675-3.775.675Zm13.318-.025c-1.117 0-2.117-.275-3-.825-.867-.55-1.559-1.3-2.075-2.25-.5-.95-.75-2.033-.75-3.25s.25-2.3.75-3.25c.516-.95 1.208-1.7 2.075-2.25.883-.55 1.883-.825 3-.825.816 0 1.55.158 2.2.475A4.23 4.23 0 0 1 85.518 7.4c.417.55.65 1.183.7 1.9v5.25a3.607 3.607 0 0 1-.7 1.925c-.4.55-.933.983-1.6 1.3-.666.317-1.408.475-2.224.475Zm.775-3.45c.816 0 1.475-.267 1.975-.8.5-.55.75-1.242.75-2.075 0-.567-.117-1.067-.35-1.5a2.295 2.295 0 0 0-.95-1c-.4-.25-.867-.375-1.4-.375-.534 0-1.009.125-1.425.375-.4.233-.725.567-.975 1-.234.433-.35.933-.35 1.5 0 .55.116 1.042.35 1.475.233.433.558.775.975 1.025.416.25.883.375 1.4.375Zm2.575 3.2v-3.275l.575-2.95-.576-2.95V5.85h3.75V18h-3.75Zm6.443 0V5.85h3.825V18h-3.825Zm3.825-6.675-1.6-1.25c.316-1.417.85-2.517 1.6-3.3.75-.783 1.791-1.175 3.125-1.175.583 0 1.091.092 1.525.275.45.167.841.433 1.175.8L98.863 9.55a1.666 1.666 0 0 0-.625-.425c-.25-.1-.534-.15-.85-.15-.634 0-1.142.2-1.525.6-.367.383-.55.967-.55 1.75Zm12.502 6.95c-1.317 0-2.492-.267-3.525-.8a6.178 6.178 0 0 1-2.4-2.275c-.583-.967-.875-2.058-.875-3.275s.283-2.3.85-3.25a6.282 6.282 0 0 1 2.35-2.275c.983-.55 2.092-.825 3.325-.825 1.2 0 2.258.258 3.175.775a5.554 5.554 0 0 1 2.15 2.15c.533.917.8 1.967.8 3.15 0 .217-.017.45-.05.7a6.248 6.248 0 0 1-.125.825l-10.475.025v-2.625l8.85-.025-1.65 1.1c-.017-.7-.125-1.275-.325-1.725-.2-.467-.5-.817-.9-1.05-.383-.25-.858-.375-1.425-.375-.6 0-1.125.142-1.575.425-.433.267-.775.65-1.025 1.15-.233.5-.35 1.108-.35 1.825 0 .717.125 1.333.375 1.85.267.5.633.892 1.1 1.175.483.267 1.05.4 1.7.4.6 0 1.142-.1 1.625-.3a3.711 3.711 0 0 0 1.275-.95l2.1 2.1a5.67 5.67 0 0 1-2.175 1.575c-.85.35-1.783.525-2.8.525Zm10.096 0c-.65 0-1.192-.225-1.625-.675a2.26 2.26 0 0 1-.65-1.625c0-.667.217-1.217.65-1.65.433-.45.975-.675 1.625-.675.667 0 1.208.225 1.625.675.433.433.65.983.65 1.65a2.26 2.26 0 0 1-.65 1.625c-.417.45-.958.675-1.625.675Z" fill="#fff"/></svg>