<svg width="121" height="19" viewBox="0 0 121 19" fill="none" xmlns="http://www.w3.org/2000/svg">
<path d="M0.7 18V0.349999H3.5L10.45 11.175H9.025L15.95 0.349999H18.775V18H14.85V6.975L15.55 7.15L11.025 14.2H8.425L3.925 7.15L4.6 6.975V18H0.7ZM27.66 18L20.86 0.349999H25.06L30.235 14.625H28.51L33.76 0.349999H37.91L31.035 18H27.66ZM42.9822 11.575V8.525H46.7822C47.2656 8.525 47.7072 8.425 48.1072 8.225C48.5072 8.025 48.8239 7.73333 49.0572 7.35C49.2906 6.96667 49.4072 6.5 49.4072 5.95C49.4072 5.41667 49.2906 4.95833 49.0572 4.575C48.8239 4.19167 48.5072 3.9 48.1072 3.7C47.7072 3.5 47.2656 3.4 46.7822 3.4H42.9822V0.349999H47.3572C48.4739 0.349999 49.4822 0.574999 50.3822 1.025C51.2822 1.475 51.9906 2.125 52.5072 2.975C53.0406 3.80833 53.3072 4.8 53.3072 5.95C53.3072 7.1 53.0406 8.1 52.5072 8.95C51.9906 9.78333 51.2822 10.4333 50.3822 10.9C49.4822 11.35 48.4739 11.575 47.3572 11.575H42.9822ZM39.9822 18V0.349999H43.9072V18H39.9822ZM68.3768 18.275C67.0601 18.275 65.8351 18.05 64.7018 17.6C63.5851 17.1333 62.6018 16.4833 61.7518 15.65C60.9184 14.8167 60.2684 13.85 59.8018 12.75C59.3351 11.6333 59.1018 10.4333 59.1018 9.15C59.1018 7.86667 59.3351 6.675 59.8018 5.575C60.2684 4.45833 60.9184 3.49167 61.7518 2.675C62.5851 1.85833 63.5601 1.225 64.6768 0.775C65.8101 0.308333 67.0351 0.0749998 68.3518 0.0749998C69.7518 0.0749998 70.9934 0.299999 72.0768 0.749999C73.1768 1.2 74.1351 1.81667 74.9518 2.6L72.3268 5.25C71.8601 4.75 71.2934 4.35833 70.6268 4.075C69.9768 3.79167 69.2184 3.65 68.3518 3.65C67.5851 3.65 66.8768 3.78333 66.2268 4.05C65.5934 4.3 65.0434 4.66667 64.5768 5.15C64.1268 5.63333 63.7684 6.21667 63.5018 6.9C63.2518 7.58333 63.1268 8.33333 63.1268 9.15C63.1268 9.98333 63.2518 10.7417 63.5018 11.425C63.7684 12.1083 64.1268 12.6917 64.5768 13.175C65.0434 13.6583 65.5934 14.0333 66.2268 14.3C66.8768 14.5667 67.5851 14.7 68.3518 14.7C69.2518 14.7 70.0351 14.5583 70.7018 14.275C71.3684 13.9917 71.9434 13.6 72.4268 13.1L75.0768 15.75C74.2268 16.5333 73.2518 17.15 72.1518 17.6C71.0684 18.05 69.8101 18.275 68.3768 18.275ZM81.6945 18.25C80.5779 18.25 79.5779 17.975 78.6945 17.425C77.8279 16.875 77.1362 16.125 76.6195 15.175C76.1195 14.225 75.8695 13.1417 75.8695 11.925C75.8695 10.7083 76.1195 9.625 76.6195 8.675C77.1362 7.725 77.8279 6.975 78.6945 6.425C79.5779 5.875 80.5779 5.6 81.6945 5.6C82.5112 5.6 83.2445 5.75833 83.8945 6.075C84.5612 6.39167 85.1029 6.83333 85.5195 7.4C85.9362 7.95 86.1695 8.58333 86.2195 9.3V14.55C86.1695 15.2667 85.9362 15.9083 85.5195 16.475C85.1195 17.025 84.5862 17.4583 83.9195 17.775C83.2529 18.0917 82.5112 18.25 81.6945 18.25ZM82.4695 14.8C83.2862 14.8 83.9445 14.5333 84.4445 14C84.9445 13.45 85.1945 12.7583 85.1945 11.925C85.1945 11.3583 85.0779 10.8583 84.8445 10.425C84.6279 9.99167 84.3112 9.65833 83.8945 9.425C83.4945 9.175 83.0279 9.05 82.4945 9.05C81.9612 9.05 81.4862 9.175 81.0695 9.425C80.6695 9.65833 80.3445 9.99167 80.0945 10.425C79.8612 10.8583 79.7445 11.3583 79.7445 11.925C79.7445 12.475 79.8612 12.9667 80.0945 13.4C80.3279 13.8333 80.6529 14.175 81.0695 14.425C81.4862 14.675 81.9529 14.8 82.4695 14.8ZM85.0445 18V14.725L85.6195 11.775L85.0445 8.825V5.85H88.7945V18H85.0445ZM91.4877 18V5.85H95.3127V18H91.4877ZM95.3127 11.325L93.7127 10.075C94.0294 8.65833 94.5627 7.55833 95.3127 6.775C96.0627 5.99167 97.1044 5.6 98.4377 5.6C99.021 5.6 99.5294 5.69167 99.9627 5.875C100.413 6.04167 100.804 6.30833 101.138 6.675L98.8627 9.55C98.696 9.36667 98.4877 9.225 98.2377 9.125C97.9877 9.025 97.7044 8.975 97.3877 8.975C96.7544 8.975 96.246 9.175 95.8627 9.575C95.496 9.95833 95.3127 10.5417 95.3127 11.325ZM107.815 18.275C106.498 18.275 105.323 18.0083 104.29 17.475C103.273 16.925 102.473 16.1667 101.89 15.2C101.307 14.2333 101.015 13.1417 101.015 11.925C101.015 10.7083 101.298 9.625 101.865 8.675C102.448 7.70833 103.232 6.95 104.215 6.4C105.198 5.85 106.307 5.575 107.54 5.575C108.74 5.575 109.798 5.83333 110.715 6.35C111.632 6.86667 112.348 7.58333 112.865 8.5C113.398 9.41667 113.665 10.4667 113.665 11.65C113.665 11.8667 113.648 12.1 113.615 12.35C113.598 12.5833 113.557 12.8583 113.49 13.175L103.015 13.2V10.575L111.865 10.55L110.215 11.65C110.198 10.95 110.09 10.375 109.89 9.925C109.69 9.45833 109.39 9.10833 108.99 8.875C108.607 8.625 108.132 8.5 107.565 8.5C106.965 8.5 106.44 8.64167 105.99 8.925C105.557 9.19167 105.215 9.575 104.965 10.075C104.732 10.575 104.615 11.1833 104.615 11.9C104.615 12.6167 104.74 13.2333 104.99 13.75C105.257 14.25 105.623 14.6417 106.09 14.925C106.573 15.1917 107.14 15.325 107.79 15.325C108.39 15.325 108.932 15.225 109.415 15.025C109.898 14.8083 110.323 14.4917 110.69 14.075L112.79 16.175C112.19 16.875 111.465 17.4 110.615 17.75C109.765 18.1 108.832 18.275 107.815 18.275ZM117.911 18.275C117.261 18.275 116.719 18.05 116.286 17.6C115.853 17.15 115.636 16.6083 115.636 15.975C115.636 15.3083 115.853 14.7583 116.286 14.325C116.719 13.875 117.261 13.65 117.911 13.65C118.578 13.65 119.119 13.875 119.536 14.325C119.969 14.7583 120.186 15.3083 120.186 15.975C120.186 16.6083 119.969 17.15 119.536 17.6C119.119 18.05 118.578 18.275 117.911 18.275Z" fill="#161E29"/>
</svg>
