<svg xmlns="http://www.w3.org/2000/svg" width="14" height="20" viewBox="0 0 14 20" fill="none">
  <path fill-rule="evenodd" clip-rule="evenodd" d="M2.43701 0.640625H8.69562L14 6.16954V16.9233C14 18.2704 12.9101 19.3603 11.5676 19.3603H2.43701C1.08987 19.3603 3.84967e-10 18.2704 3.84967e-10 16.9233V3.07764C-2.36519e-05 1.7305 1.08985 0.640625 2.43701 0.640625Z" fill="#E5252A"/>
  <path opacity="0.302" fill-rule="evenodd" clip-rule="evenodd" d="M8.69141 0.640625V6.12743H14.0005L8.69141 0.640625Z" fill="white"/>
  <path d="M2.55957 14.5892V11.1699H4.0143C4.37448 11.1699 4.65982 11.2681 4.87499 11.4693C5.09015 11.6657 5.19775 11.9324 5.19775 12.2645C5.19775 12.5966 5.09015 12.8632 4.87499 13.0597C4.65982 13.2608 4.37448 13.359 4.0143 13.359H3.43428V14.5892H2.55957ZM3.43428 12.6153H3.91608C4.04704 12.6153 4.14995 12.5872 4.22013 12.5218C4.29028 12.461 4.32772 12.3768 4.32772 12.2645C4.32772 12.1522 4.2903 12.068 4.22013 12.0072C4.14997 11.9417 4.04706 11.9137 3.91608 11.9137H3.43428V12.6153ZM5.5579 14.5892V11.1699H6.76939C7.00795 11.1699 7.23248 11.2027 7.44296 11.2728C7.65344 11.343 7.84524 11.4412 8.01362 11.5769C8.18203 11.7078 8.31767 11.8856 8.4159 12.1101C8.50944 12.3347 8.56091 12.5919 8.56091 12.8819C8.56091 13.1673 8.50947 13.4245 8.4159 13.649C8.31767 13.8736 8.18203 14.0513 8.01362 14.1823C7.84522 14.3179 7.65344 14.4162 7.44296 14.4863C7.23248 14.5565 7.00795 14.5892 6.76939 14.5892H5.5579ZM6.4139 13.8455H6.66648C6.80213 13.8455 6.92843 13.8315 7.04537 13.7987C7.15762 13.766 7.26522 13.7145 7.36813 13.6444C7.46635 13.5742 7.54587 13.476 7.602 13.345C7.65813 13.214 7.6862 13.0597 7.6862 12.8819C7.6862 12.6995 7.65813 12.5451 7.602 12.4142C7.54587 12.2832 7.46635 12.185 7.36813 12.1148C7.26522 12.0447 7.15764 11.9932 7.04537 11.9605C6.92843 11.9277 6.80213 11.9137 6.66648 11.9137H6.4139V13.8455ZM9.00061 14.5892V11.1699H11.433V11.9137H9.87532V12.4609H11.1195V13.2H9.87532V14.5892H9.00061Z" fill="white"/>
</svg>