<svg xmlns="http://www.w3.org/2000/svg" width="49" height="57" viewBox="0 0 49 57" fill="none">
  <path d="M0.00440631 27.0396C0.258115 29.2355 1.19535 36.7339 2.61959 41.0908C4.30107 46.2388 9.32586 47.7968 12.3273 50.1437C14.1564 51.4951 14.781 54.0834 14.6875 55.9052L14.7031 55.9281C14.8684 56.147 15.1891 56.1692 15.3831 55.9752L20.0577 51.3004C21.6802 49.6778 22.0277 47.1657 20.8843 45.1761C20.0038 43.6435 18.609 42.3115 17.3276 40.7557C15.725 38.6827 14.4837 36.3472 13.7306 33.8345C13.646 33.2702 13.1096 33.1082 12.6664 33.4153C11.1006 34.5014 10.446 36.7518 11.4283 38.2698L11.9368 39.0778C12.1114 39.3622 11.7639 39.6618 11.4959 39.4728C8.40853 37.9702 6.5978 35.1137 5.33455 31.9006C4.4986 29.7772 3.77275 25.7683 0.657699 26.214C0.26265 26.2714 -0.0404399 26.6544 0.00440631 27.0396Z" fill="#FCC4AE"/>
  <path d="M15.9628 54.6676L15.9472 54.6447C16.0406 52.8226 15.4161 50.2347 13.587 48.8832C10.5853 46.5364 5.5605 44.9783 3.87927 39.8303C2.53313 35.7118 1.62185 28.7861 1.31195 26.1858C1.10637 26.1724 0.888686 26.1807 0.657905 26.214C0.262855 26.2707 -0.0402345 26.6536 0.00435972 27.0391C0.258068 29.2351 1.1953 36.7334 2.61955 41.0903C4.30103 46.2383 9.32581 47.7963 12.3272 50.1432C14.1564 51.4946 14.7809 54.0829 14.6875 55.9047L14.7031 55.9276C14.8683 56.1465 15.1891 56.1687 15.3831 55.9747L16.6423 54.7155C16.4483 54.9085 16.1281 54.8863 15.9628 54.6676Z" fill="#F2AD97"/>
  <path d="M48.9955 27.0396C48.7418 29.2355 47.8045 36.7339 46.3803 41.0908C44.6988 46.2388 39.674 47.7968 36.6726 50.1437C34.8435 51.4951 34.2189 54.0834 34.3124 55.9052L34.2968 55.9281C34.1315 56.147 33.8108 56.1692 33.6168 55.9752L28.9422 51.3004C27.3197 49.6778 26.9725 47.1657 28.1156 45.1761C28.9961 43.6435 30.3909 42.3115 31.6723 40.7557C33.2749 38.6827 34.5162 36.3472 35.2693 33.8345C35.3539 33.2702 35.8903 33.1082 36.3335 33.4153C37.8993 34.5014 38.5539 36.7518 37.5715 38.2698L37.0631 39.0778C36.8885 39.3622 37.236 39.6618 37.504 39.4728C40.5914 37.9702 42.4021 35.1137 43.6653 31.9006C44.5013 29.7772 45.2271 25.7683 48.3422 26.214C48.7372 26.2714 49.0403 26.6544 48.9955 27.0396Z" fill="#FCC4AE"/>
  <path d="M48.3418 26.2138C48.111 26.1808 47.8933 26.1725 47.6878 26.1856C47.3779 28.7859 46.4666 35.7116 45.1204 39.8302C43.439 44.9782 38.4142 46.5362 35.4128 48.8831C33.5836 50.2345 32.9591 52.8227 33.0525 54.6445L33.0369 54.6675C32.8716 54.8862 32.5514 54.9086 32.3574 54.7151L33.6166 55.9743C33.8106 56.1683 34.1314 56.1461 34.2966 55.9272L34.3123 55.9043C34.2188 54.0822 34.8434 51.4942 36.6725 50.1428C39.6742 47.7959 44.6989 46.2379 46.3802 41.0899C47.8044 36.733 48.7416 29.2346 48.9954 27.0387C49.0399 26.6535 48.7369 26.2705 48.3418 26.2138Z" fill="#F2AD97"/>
  <path d="M38.9486 20.3108C38.9486 24.3326 37.2475 28.1969 34.2816 30.9131L25.6714 38.7982C25.0032 39.41 23.9962 39.41 23.328 38.7982L14.7178 30.9131C11.7517 28.1969 10.0508 24.3323 10.0508 20.3108V2.62552C10.0508 1.66888 10.829 0.890625 11.7857 0.890625H37.214C38.1706 0.890625 38.9489 1.66888 38.9489 2.62552L38.9486 20.3108Z" fill="#E63950"/>
  <path d="M11.5625 20.8145C11.2853 20.8145 11.0586 20.5902 11.0586 20.3106V2.62656C11.0662 2.21841 11.3786 1.906 11.7867 1.89844H31.5417C31.8214 1.89844 32.0456 2.12519 32.0456 2.40233C32.0456 2.68199 31.8214 2.90622 31.5417 2.90622H12.0664V20.3106C12.0664 20.5902 11.8396 20.8145 11.5625 20.8145ZM33.5573 2.90622C33.2801 2.90622 33.0534 2.68199 33.0534 2.40233C33.0534 2.12519 33.2801 1.89844 33.5573 1.89844C33.8369 1.89844 34.0612 2.12519 34.0612 2.40233C34.0612 2.68199 33.8369 2.90622 33.5573 2.90622Z" fill="#E8566F"/>
  <path d="M37.2136 0.892578H36.4291V17.7933C36.4291 21.8151 34.728 25.6794 31.7621 28.3956L23.1519 36.2807C22.4837 36.8925 21.4767 36.8925 20.8085 36.2807L13.2842 29.3901C13.7228 29.9292 14.1997 30.4407 14.7177 30.9151L23.328 38.8002C23.9961 39.4119 25.0031 39.4119 25.6713 38.8002L34.2815 30.9151C37.2477 28.1989 38.9485 24.3343 38.9485 20.3127V2.62747C38.9485 1.67084 38.1703 0.892578 37.2136 0.892578Z" fill="#D10028"/>
  <path d="M37.6356 0.935547C37.6696 1.07059 37.6895 1.21117 37.6895 1.3568V19.0421C37.6895 23.0639 35.9884 26.9282 33.0225 29.6444L24.4123 37.5295C23.7441 38.1413 22.7371 38.1413 22.0689 37.5295L13.6719 29.8397C14.0007 30.2108 14.3496 30.5665 14.7182 30.9041L23.3284 38.7893C23.9966 39.401 25.0036 39.401 25.6718 38.7893L34.282 30.9041C37.2481 28.1879 38.949 24.3233 38.949 20.3018V2.61652C38.9492 1.80526 38.3892 1.12451 37.6356 0.935547Z" fill="#B7022D"/>
  <path d="M28.9997 9.26174C27.4369 9.25998 25.9436 9.90697 24.8764 11.0485C24.6832 11.2566 24.3579 11.2685 24.1498 11.0752C24.1405 11.0667 24.1316 11.0579 24.1231 11.0485C21.9889 8.77121 18.4125 8.65531 16.1354 10.7895C14.9954 11.858 14.3486 13.3508 14.3486 14.9131C14.3486 19.5844 21.5492 26.3345 23.8215 28.3483C24.2087 28.6917 24.7915 28.6917 25.1785 28.3483C27.4508 26.3345 34.6514 19.5847 34.6514 14.9131C34.6511 11.7923 32.1211 9.262 28.9997 9.26174C29 9.26174 29 9.26174 28.9997 9.26174Z" fill="white"/>
  <path d="M34.5421 15.9486H26.44C26.0399 15.9486 25.6794 16.1902 25.5277 16.5603L24.6348 18.7361L23.1111 13.9305C22.9466 13.4115 22.3923 13.124 21.8733 13.2885C21.6737 13.3518 21.4996 13.4767 21.3759 13.6453L19.6872 15.9491H14.457C14.6022 16.6303 14.8261 17.2922 15.1244 17.9213H20.1868C20.5007 17.9215 20.796 17.7721 20.9819 17.5189L21.8179 16.3794L23.5757 21.9222C23.7009 22.3177 24.0604 22.5923 24.4751 22.6095C24.4887 22.6095 24.5023 22.6105 24.5159 22.6105C24.9158 22.61 25.276 22.3684 25.428 21.9985L27.1011 17.9213H33.8744C34.173 17.2919 34.397 16.6298 34.5421 15.9486Z" fill="#F79219"/>
</svg>