<svg xmlns="http://www.w3.org/2000/svg" width="13" height="13" viewBox="0 0 13 13" fill="none">
  <path d="M6.5 0C3.2045 0 0.483641 2.45314 0.0593125 5.63245C0.0589062 5.6357 0.0585 5.63875 0.0580938 5.642C0.0467188 5.72752 0.0365625 5.81323 0.0284375 5.89977C0.0245781 5.93978 0.0225469 5.9802 0.0192969 6.02042C0.0150313 6.0773 0.0103594 6.13417 0.00751563 6.19145C0.00284375 6.29342 0 6.39641 0 6.5C0 10.0898 2.91017 13 6.5 13C10.0898 13 13 10.0898 13 6.5C13 2.91017 10.0898 0 6.5 0ZM6.77666 11.8832C6.63041 12.0431 6.39052 12.1704 6.2333 12.0193C6.10066 11.8885 6.21319 11.7268 6.2333 11.5414C6.25869 11.325 6.15977 11.065 6.36858 10.9978C6.53859 10.9452 6.66677 11.0632 6.77666 11.2034C6.94423 11.4105 6.9548 11.685 6.77666 11.8832ZM8.82497 10.1298C8.58528 10.2533 8.4175 10.2302 8.14998 10.2665C7.65152 10.3293 7.25745 10.5753 6.86359 10.2665C6.68748 10.1254 6.66494 9.97181 6.52844 9.79103C6.30825 9.51397 6.2532 9.00311 5.91703 9.11625C5.70213 9.18856 5.70862 9.40367 5.58106 9.59055C5.41653 9.82536 5.45777 10.1579 5.1738 10.1985C4.97595 10.2265 4.86931 10.1055 4.70234 9.99537C4.51506 9.87066 4.47809 9.72156 4.29569 9.59055C4.10597 9.45059 3.95241 9.44978 3.75659 9.31958C3.61562 9.22553 3.58556 9.0547 3.41677 9.04861C3.26422 9.04414 3.15494 9.11889 3.07877 9.25092C2.93637 9.49752 2.88742 10.2245 2.47183 10.1985C2.16389 10.1776 1.50536 9.48573 1.2543 9.31958C1.17203 9.26412 1.09586 9.20766 1.01908 9.16459C0.647563 8.40166 0.431844 7.54934 0.410313 6.64889C0.535031 6.54428 0.661984 6.49269 0.779797 6.34562C0.968094 6.11609 0.8775 5.83639 1.11962 5.6682C1.29959 5.54552 1.44503 5.56522 1.66177 5.53455C1.97234 5.48945 2.16775 5.44883 2.47183 5.53455C2.76819 5.61762 2.88133 5.78764 3.14742 5.93917C3.43484 6.1037 3.56423 6.29789 3.89086 6.34562C4.1277 6.37914 4.2902 6.16261 4.4978 6.27717C4.66517 6.3702 4.78339 6.4937 4.77019 6.68362C4.74988 6.93103 4.25791 6.77381 4.23008 7.02122C4.19291 7.33769 4.74033 6.98181 5.04095 7.08825C5.2388 7.16036 5.49616 7.14797 5.51322 7.35922C5.52967 7.59403 5.18659 7.52923 4.97352 7.63039C4.73748 7.74028 4.61378 7.8327 4.36333 7.90034C4.13481 7.96088 3.8937 7.77278 3.75659 7.96717C3.64894 8.11789 3.68692 8.26962 3.75659 8.44147C3.91645 8.8337 4.43686 8.71609 4.83763 8.57492C5.11855 8.4758 5.17095 8.22433 5.44639 8.10184C5.73848 7.97164 5.96517 7.83067 6.25503 7.96717C6.49431 8.08011 6.42748 8.38358 6.6625 8.50809C6.91702 8.64378 7.1565 8.36002 7.40655 8.50809C7.60094 8.62367 7.58672 8.81705 7.74272 8.98077C7.92431 9.17211 8.02913 9.32648 8.28466 9.38702C8.54587 9.44775 8.70553 9.16947 8.96045 9.25072C9.15647 9.3147 9.31694 9.38884 9.36406 9.59034C9.4382 9.87878 9.08862 9.99334 8.82497 10.1298ZM9.31105 6.87395C9.07664 7.10958 8.87311 7.18656 8.54506 7.25847C8.25398 7.32245 7.8457 7.55056 7.77888 7.25847C7.72789 7.02528 7.98789 6.942 8.16339 6.7793C8.35819 6.5975 8.53998 6.57963 8.73742 6.39498C8.91414 6.23208 8.89098 5.98244 9.12194 5.91581C9.3472 5.85081 9.56516 5.91195 9.69577 6.10817C9.88244 6.38584 9.54809 6.63833 9.31105 6.87395ZM12.1853 5.95542C12.0853 6.05861 12.0914 6.16748 11.9892 6.26864C11.8761 6.37813 11.7189 6.331 11.6362 6.46527C11.5635 6.58247 11.6098 6.67997 11.5968 6.81769C11.5885 6.8963 11.206 7.07281 11.127 6.89589C11.0835 6.79819 11.1841 6.71166 11.127 6.62106C11.0736 6.53961 11.0142 6.58145 10.9444 6.65783C10.8715 6.73664 10.7876 6.85242 10.6964 6.89589C10.5767 6.95134 10.6565 6.43886 10.6161 6.26864C10.5865 6.13397 10.6182 6.04927 10.6563 5.91602C10.7071 5.73117 10.8469 5.67105 10.891 5.48438C10.9304 5.32066 10.8977 5.22133 10.891 5.05314C10.883 4.86911 10.8879 4.76328 10.8528 4.58311C10.8138 4.39278 10.8016 4.27334 10.6962 4.11267C10.6112 3.98592 10.5552 3.90934 10.4211 3.83805C10.3886 3.82017 10.3582 3.80839 10.3293 3.79925C10.2603 3.7763 10.1955 3.77325 10.1063 3.76005C9.92591 3.73323 9.79712 3.8478 9.63625 3.76005C9.54241 3.70825 9.51316 3.64325 9.44125 3.56363C9.35919 3.47547 9.33745 3.40336 9.24483 3.32841C9.17556 3.27234 9.1327 3.23964 9.04881 3.21039C8.88834 3.15697 8.77622 3.19373 8.61697 3.2502C8.46056 3.30464 8.40206 3.39381 8.26373 3.48481C8.1577 3.54636 8.08234 3.56017 7.98992 3.64203C7.93386 3.69119 7.66695 3.88111 7.55788 3.87664C7.44737 3.87237 7.38502 3.80697 7.28609 3.79905C7.27289 3.79742 7.25969 3.79742 7.24466 3.79905C7.24466 3.79905 7.24466 3.79905 7.24364 3.79905C7.14756 3.80636 7.10227 3.85369 7.01086 3.87664C6.786 3.9327 6.6428 3.85328 6.42078 3.91666C6.27616 3.95728 6.21908 4.07225 6.06938 4.07327C5.89855 4.07428 5.84086 3.92234 5.67694 3.87664C5.58716 3.85267 5.53434 3.85044 5.44192 3.83805C5.28978 3.81611 5.20264 3.81388 5.0507 3.79925H5.04969C5.04644 3.80047 4.92964 3.81103 4.90994 3.79925C4.82422 3.74116 4.76328 3.69342 4.65725 3.64223C4.54045 3.58475 4.47058 3.5553 4.34302 3.52361L4.3483 3.44622C4.3483 3.44622 4.3483 3.27417 4.32372 3.20105C4.30036 3.12772 4.27497 3.12772 4.32372 2.98045C4.37409 2.8338 4.46164 2.74036 4.46164 2.74036C4.52197 2.69405 4.56645 2.67841 4.61784 2.62255C4.72144 2.51306 4.76348 2.41983 4.77506 2.26931C4.78867 2.07188 4.5303 1.99164 4.57803 1.79887C4.62048 1.63109 4.76166 1.59981 4.89227 1.48545C5.0505 1.34936 5.19045 1.33148 5.32289 1.17223C5.42466 1.05178 5.50794 0.976219 5.51992 0.819203C5.53069 0.68575 5.4732 0.602266 5.40414 0.506797C5.75981 0.441797 6.12564 0.40625 6.5 0.40625C9.53042 0.40625 12.0433 2.61889 12.5135 5.51647C12.4723 5.58797 12.5133 5.67816 12.4587 5.7588C12.3864 5.86909 12.2761 5.86016 12.1853 5.95542Z" fill="#161E29"/>
</svg>