<svg xmlns="http://www.w3.org/2000/svg" width="27" height="27" viewBox="0 0 27 27" fill="none">
  <path d="M26.2538 12.2929L1.95346 0.143356C1.46698 -0.10185 0.877667 -0.0280243 0.465015 0.330556C0.0523624 0.689137 -0.103206 1.25997 0.0695013 1.77806L3.52719 12.1505H13.4998C14.246 12.1505 14.8498 12.7543 14.8498 13.5005C14.8498 14.2467 14.246 14.8504 13.4998 14.8504H3.52719L0.0695013 25.2229C-0.103206 25.741 0.0523624 26.3118 0.465015 26.6704C0.715506 26.8879 1.03192 27 1.34965 27C1.55531 27 1.7623 26.9525 1.95346 26.8576L26.2538 14.7081C26.7113 14.4787 27 14.012 27 13.5005C27 12.989 26.7113 12.5223 26.2538 12.2929Z" fill="#7A69FE"/>
</svg>