<svg xmlns="http://www.w3.org/2000/svg" width="34" height="34" viewBox="0 0 34 34" fill="none">
  <mask id="mask0_14_54118" style="mask-type:luminance" maskUnits="userSpaceOnUse" x="0" y="0" width="34" height="34">
    <path d="M0 0H34V34H0V0Z" fill="white"/>
  </mask>
  <g mask="url(#mask0_14_54118)">
    <path d="M23.8114 16.2997L26.9216 14.5079C27.2964 14.2919 27.4249 13.8126 27.2082 13.4382L25.2078 9.98047C24.9917 9.60693 24.514 9.4789 24.14 9.69432L21.0238 11.4897C20.5022 11.7902 19.8508 11.4138 19.8508 10.8118V7.24891C19.8508 6.8168 19.5005 6.46651 19.0684 6.46651H15.0644C14.6323 6.46651 14.2821 6.8168 14.2821 7.24891V10.8118C14.2821 11.4138 13.6306 11.7902 13.1091 11.4897L9.9929 9.69432C9.61897 9.4789 9.14117 9.60686 8.92509 9.98047L6.92467 13.4382C6.70798 13.8126 6.83634 14.2919 7.21127 14.5079L10.3214 16.2997C10.8439 16.6008 10.8439 17.3546 10.3214 17.6556L7.21127 19.4475C6.83641 19.6635 6.70798 20.1427 6.92467 20.5172L8.92509 23.9749C9.14117 24.3485 9.61897 24.4765 9.9929 24.2611L13.1091 22.4656C13.6306 22.1651 14.2821 22.5416 14.2821 23.1436V26.7528C14.2821 27.1849 14.6323 27.5352 15.0644 27.5352H19.0684C19.5005 27.5352 19.8508 27.1849 19.8508 26.7528V23.1436C19.8508 22.5416 20.5022 22.1651 21.0238 22.4656L24.14 24.2611C24.514 24.4765 24.9917 24.3485 25.2078 23.9749L27.2083 20.5172C27.4249 20.1427 27.2965 19.6635 26.9216 19.4475L23.8114 17.6556C23.289 17.3546 23.289 16.6008 23.8114 16.2997Z" stroke="white" stroke-width="1.75781" stroke-miterlimit="10"/>
    <path d="M33.0039 16.9961C33.0039 25.8348 25.8387 33 17 33C8.16126 33 0.996094 25.8348 0.996094 16.9961C0.996094 8.15736 8.16126 0.992188 17 0.992188C25.8387 0.992188 33.0039 8.15736 33.0039 16.9961Z" stroke="white" stroke-width="1.75781" stroke-miterlimit="10"/>
  </g>
</svg>