<svg width="22" height="25" viewBox="0 0 22 25" fill="none" xmlns="http://www.w3.org/2000/svg">
<path d="M3.06818 6.13625C4.75992 6.13625 6.13626 4.75987 6.13626 3.06813C6.13626 1.37639 4.75992 0 3.06818 0C1.37643 0 0 1.37639 0 3.06813C0 4.75987 1.37639 6.13625 3.06818 6.13625Z" fill="#FD9821"/>
<path d="M18.6678 6.13625C20.3595 6.13625 21.7359 4.75987 21.7359 3.06813C21.7359 1.37639 20.3595 0 18.6678 0C16.976 0 15.5996 1.37639 15.5996 3.06813C15.5996 4.75987 16.976 6.13625 18.6678 6.13625Z" fill="#FD9821"/>
<path d="M10.869 7.69412C12.5607 7.69412 13.937 6.31773 13.937 4.62599C13.937 2.93425 12.5607 1.55786 10.869 1.55786C9.17722 1.55786 7.80078 2.93425 7.80078 4.62599C7.80078 6.31773 9.17717 7.69412 10.869 7.69412Z" fill="#FD9821"/>
<path d="M8.5815 19.7517V24.1299C8.5815 24.3823 8.71213 24.6166 8.92685 24.7493C9.14594 24.8847 9.41426 24.8917 9.63534 24.7812L12.7553 23.2213C13.002 23.0979 13.1579 22.8458 13.1579 22.5699V19.7517L17.5147 15.3948H4.22461L8.5815 19.7517Z" fill="#FD9821"/>
<path d="M19.4477 9.35791H2.28813C1.02646 9.35791 0 10.3844 0 11.646C0 12.9078 1.02646 13.9342 2.28813 13.9342H19.4477C20.7093 13.9342 21.7358 12.9078 21.7358 11.646C21.7358 10.3844 20.7093 9.35791 19.4477 9.35791Z" fill="#FD9821"/>
</svg>
