<svg width="26" height="23" viewBox="0 0 26 23" fill="none" xmlns="http://www.w3.org/2000/svg">
<path d="M13.002 8.89844H5.94898C5.3928 8.89844 4.94141 9.34983 4.94141 9.90601V11.4174C4.94141 11.9736 5.3928 12.425 5.94898 12.425C6.50516 12.425 6.95656 11.9736 6.95656 11.4174V10.9136H8.46792V16.959H7.96413C7.40795 16.959 6.95656 17.4104 6.95656 17.9666C6.95656 18.5228 7.40795 18.9742 7.96413 18.9742H10.9869C11.543 18.9742 11.9944 18.5228 11.9944 17.9666C11.9944 17.4104 11.543 16.959 10.9869 16.959H10.4831V10.9136H11.9944V11.4174C11.9944 11.9736 12.4458 12.425 13.002 12.425C13.5582 12.425 14.0096 11.9736 14.0096 11.4174V9.90601C14.0096 9.34983 13.5582 8.89844 13.002 8.89844Z" fill="#7A69FE"/>
<path d="M20.0498 10.9136H17.0271C16.4709 10.9136 16.0195 10.4622 16.0195 9.90601C16.0195 9.34983 16.4709 8.89844 17.0271 8.89844H20.0498C20.606 8.89844 21.0574 9.34983 21.0574 9.90601C21.0574 10.4622 20.606 10.9136 20.0498 10.9136Z" fill="#7A69FE"/>
<path d="M20.0498 14.937H17.0271C16.4709 14.937 16.0195 14.4856 16.0195 13.9295C16.0195 13.3733 16.4709 12.9219 17.0271 12.9219H20.0498C20.606 12.9219 21.0574 13.3733 21.0574 13.9295C21.0574 14.4856 20.606 14.937 20.0498 14.937Z" fill="#7A69FE"/>
<path d="M20.0498 18.9605H17.0271C16.4709 18.9605 16.0195 18.5091 16.0195 17.9529C16.0195 17.3967 16.4709 16.9453 17.0271 16.9453H20.0498C20.606 16.9453 21.0574 17.3967 21.0574 17.9529C21.0574 18.5091 20.606 18.9605 20.0498 18.9605Z" fill="#7A69FE"/>
<path d="M22.0653 0.828125H3.92898C2.26245 0.828125 0.90625 2.18432 0.90625 3.85085V19.9721C0.90625 21.6386 2.26245 22.9948 3.92898 22.9948H22.0653C23.7319 22.9948 25.0881 21.6386 25.0881 19.9721V3.85085C25.0881 2.18432 23.7319 0.828125 22.0653 0.828125ZM22.0653 20.9796H3.92898C3.3738 20.9796 2.9214 20.5282 2.9214 19.9721V5.866H23.0729V19.9721C23.0729 20.5282 22.6205 20.9796 22.0653 20.9796Z" fill="#7A69FE"/>
</svg>
