<svg width="24" height="20" viewBox="0 0 24 20" fill="none" xmlns="http://www.w3.org/2000/svg">
<path d="M24 16.4689V6.46702C23.9999 6.35764 23.978 6.24937 23.9358 6.14849C23.8935 6.0476 23.8317 5.9561 23.7538 5.87927C23.6759 5.80245 23.5836 5.74183 23.4822 5.70093C23.3807 5.66002 23.2722 5.63965 23.1628 5.64098H13.3507C13.083 5.64059 12.8209 5.56367 12.5955 5.41929C12.37 5.27492 12.1905 5.0691 12.0781 4.82609L11.5758 3.72098L10.8949 2.24749C10.862 2.17821 10.8247 2.1111 10.7833 2.04656C10.521 1.56547 10.1335 1.1642 9.66194 0.885181C9.19035 0.606159 8.65213 0.459752 8.10419 0.46144H3.06977C2.66656 0.461147 2.26725 0.540348 1.89467 0.694514C1.5221 0.848681 1.18357 1.07479 0.89846 1.3599C0.613347 1.64501 0.387241 1.98354 0.233075 2.35611C0.0789088 2.72869 -0.000292751 3.128 8.13096e-07 3.53121V16.4689C-0.000292751 16.8721 0.0789088 17.2714 0.233075 17.644C0.387241 18.0166 0.613347 18.3551 0.89846 18.6402C1.18357 18.9253 1.5221 19.1514 1.89467 19.3056C2.26725 19.4597 2.66656 19.5389 3.06977 19.5387H20.9302C21.3334 19.5389 21.7328 19.4597 22.1053 19.3056C22.4779 19.1514 22.8164 18.9253 23.1015 18.6402C23.3867 18.3551 23.6128 18.0166 23.7669 17.644C23.9211 17.2714 24.0003 16.8721 24 16.4689Z" fill="#157EF7"/>
<path d="M13.0937 4.37337C13.1182 4.4203 13.1551 4.45964 13.2003 4.48718C13.2456 4.51471 13.2975 4.5294 13.3504 4.52965H23.1625C23.4394 4.52683 23.7135 4.58395 23.9662 4.69709C23.864 3.96422 23.5004 3.29294 22.9425 2.80683C22.3846 2.32072 21.6699 2.05249 20.9299 2.05151H12.0332L12.5913 3.25709L13.0937 4.37337Z" fill="#157EF7" fill-opacity="0.6"/>
</svg>

