<svg xmlns="http://www.w3.org/2000/svg" width="17" height="14" viewBox="0 0 17 14" fill="none">
  <mask id="path-1-outside-1_14_51486" maskUnits="userSpaceOnUse" x="-0.164062" y="0" width="17" height="14" fill="black">
    <rect fill="white" x="-0.164062" width="17" height="14"/>
    <path d="M15.8359 9.96094C15.8359 9.12066 15.5731 8.30929 15.0757 7.61454C14.718 7.11483 14.2573 6.69985 13.7235 6.39147C14.352 5.82167 14.7453 5.01632 14.7453 4.12419C14.7453 2.40152 13.2813 1 11.4819 1C10.4149 1 9.41536 1.50519 8.80825 2.33448C8.65397 2.31297 8.49635 2.30137 8.33592 2.30137C8.17548 2.30137 8.0179 2.31301 7.86363 2.33448C7.25647 1.50519 6.25696 1 5.19 1C3.39056 1 1.92658 2.40152 1.92658 4.12419C1.92658 5.01632 2.31982 5.82167 2.94836 6.39147C2.41449 6.69981 1.95384 7.11483 1.59616 7.6145C1.09882 8.30929 0.835938 9.12066 0.835938 9.96094V11.6987H3.98189V13H12.69V11.6987H15.8359V9.96094H15.8359ZM11.4819 1.77108C12.8372 1.77108 13.9399 2.82668 13.9399 4.12422C13.9399 5.42177 12.8372 6.47737 11.4819 6.47737C11.4576 6.47737 11.4333 6.47702 11.409 6.47633C11.4108 6.47139 11.4124 6.46634 11.4142 6.46141C11.4561 6.34752 11.4911 6.23056 11.5192 6.11108C11.5212 6.1026 11.5234 6.0942 11.5253 6.08568C11.5326 6.05345 11.539 6.02091 11.5453 5.9883C11.5482 5.97288 11.5512 5.95749 11.5539 5.94203C11.559 5.91293 11.5636 5.8837 11.5678 5.85437C11.5708 5.83397 11.5734 5.81358 11.5759 5.79315C11.5791 5.76724 11.5822 5.74129 11.5848 5.71519C11.5873 5.68855 11.5893 5.66188 11.5911 5.63516C11.5926 5.61411 11.5944 5.59314 11.5954 5.57197C11.5976 5.5266 11.5989 5.48114 11.599 5.43565C11.599 5.4323 11.5993 5.42902 11.5993 5.42563C11.5993 5.42382 11.5991 5.422 11.5991 5.42019C11.5991 5.37374 11.5977 5.32755 11.5955 5.28152C11.5948 5.26814 11.594 5.2548 11.5932 5.24146C11.5908 5.20233 11.5877 5.1634 11.5839 5.12465C11.583 5.11586 11.5823 5.10707 11.5813 5.09832C11.4596 3.97225 10.7165 3.00841 9.64454 2.56259C10.1065 2.06577 10.7746 1.77108 11.4819 1.77108ZM7.48545 3.21763C7.4933 3.2149 7.50124 3.21231 7.50909 3.20961C7.53353 3.20125 7.55818 3.19331 7.58294 3.18563C7.60171 3.17989 7.6206 3.17434 7.6396 3.16902C7.65342 3.16513 7.66727 3.16139 7.68116 3.15768C7.70597 3.15117 7.7309 3.14481 7.75607 3.13899C7.94211 3.09573 8.13614 3.07225 8.33584 3.07225C8.5357 3.07241 8.7298 3.09592 8.91589 3.13918C8.9409 3.14496 8.96566 3.15128 8.99035 3.15776C9.00445 3.1615 9.01854 3.16528 9.03251 3.16925C9.05128 3.17453 9.06996 3.18001 9.08853 3.18567C9.11362 3.19342 9.13855 3.20144 9.16327 3.20992C9.17088 3.21251 9.17849 3.21497 9.18606 3.21763C10.0081 3.50866 10.6244 4.20904 10.7639 5.059C10.765 5.06578 10.7661 5.07261 10.7671 5.07943C10.7716 5.10823 10.7753 5.13726 10.7787 5.16637C10.7799 5.17708 10.7812 5.18776 10.7823 5.19852C10.7849 5.22508 10.7869 5.25184 10.7887 5.27867C10.7894 5.29016 10.7904 5.30161 10.791 5.31313C10.7926 5.34741 10.7936 5.38187 10.7937 5.41653C10.7937 5.41954 10.7939 5.42247 10.7939 5.42547C10.7939 5.42686 10.7938 5.42829 10.7938 5.42968C10.7937 5.46322 10.7927 5.49653 10.7912 5.52972C10.7907 5.54017 10.7902 5.55061 10.7895 5.56102C10.7877 5.5931 10.7852 5.62502 10.7819 5.65671C10.7807 5.66897 10.779 5.68119 10.7775 5.69341C10.7751 5.71392 10.7724 5.73439 10.7694 5.75475C10.767 5.77059 10.7647 5.78648 10.762 5.80224C10.758 5.82626 10.7535 5.85013 10.7486 5.87391C10.7443 5.89508 10.7396 5.91617 10.7347 5.93721C10.7318 5.9499 10.7287 5.96258 10.7255 5.97519C10.7177 6.00645 10.709 6.03753 10.6999 6.06848C10.6962 6.08078 10.6928 6.09316 10.6889 6.10534C10.6833 6.12307 10.6773 6.14065 10.6713 6.15823C10.6664 6.17231 10.6615 6.1863 10.6564 6.20026C10.6506 6.2161 10.6449 6.23198 10.6387 6.24771C10.6283 6.27443 10.6174 6.30092 10.606 6.32717C10.6009 6.33889 10.5955 6.35049 10.5902 6.36217C10.5803 6.38403 10.57 6.40578 10.5594 6.42729C10.5582 6.42983 10.5569 6.43238 10.5557 6.43492C10.5518 6.44256 10.548 6.45023 10.5441 6.45786C10.5322 6.48115 10.5198 6.50416 10.5071 6.52699C10.5021 6.53585 10.4973 6.54483 10.4923 6.55366C10.4919 6.55424 10.4916 6.55478 10.4913 6.55532C10.4774 6.57961 10.4628 6.60351 10.4481 6.62726C10.4422 6.63667 10.4364 6.64611 10.4304 6.6554C10.4143 6.68042 10.3977 6.70517 10.3807 6.72954C10.3701 6.74469 10.359 6.75953 10.3481 6.77445C10.3388 6.7871 10.3295 6.79978 10.32 6.81223C10.3076 6.82835 10.295 6.84427 10.2822 6.86011C10.2735 6.87087 10.2647 6.88155 10.2558 6.89219C10.2423 6.90838 10.2287 6.9245 10.2147 6.94034C10.2061 6.95017 10.1972 6.95981 10.1884 6.96949C10.1739 6.98541 10.1594 7.00137 10.1445 7.0169C10.1356 7.02612 10.1265 7.03499 10.1174 7.04408C10.0932 7.06856 10.0684 7.09251 10.0431 7.11598C10.0281 7.1299 10.0131 7.14386 9.99775 7.15739C9.98712 7.16676 9.97621 7.17586 9.96537 7.18507C9.94774 7.20007 9.92998 7.21491 9.9119 7.2294C9.90271 7.23677 9.89345 7.24405 9.88415 7.2513C9.86228 7.26834 9.84013 7.28504 9.81762 7.30138C9.8115 7.30582 9.80546 7.31033 9.7993 7.31472C9.39015 7.6059 8.88371 7.7785 8.33588 7.7785C7.788 7.7785 7.28148 7.60587 6.87233 7.3146C6.86629 7.31029 6.86037 7.30585 6.85437 7.3015C6.83178 7.28511 6.80951 7.2683 6.78757 7.25119C6.77834 7.24398 6.76912 7.23677 6.76002 7.22944C6.74186 7.21487 6.72406 7.19995 6.70634 7.18492C6.69559 7.17574 6.68471 7.16672 6.67412 7.15739C6.6587 7.14382 6.64372 7.12982 6.62866 7.11591C6.60325 7.09235 6.5784 7.06833 6.55408 7.04378C6.54518 7.03479 6.53608 7.02604 6.52734 7.01694C6.5124 7.00137 6.49794 6.98537 6.48344 6.96945C6.47462 6.95977 6.46576 6.95017 6.45711 6.94034C6.44313 6.9245 6.42952 6.90838 6.41599 6.89223C6.40713 6.88159 6.39831 6.87091 6.38961 6.86011C6.37685 6.84431 6.36424 6.82839 6.35188 6.81227C6.34234 6.79978 6.33303 6.78706 6.32373 6.77437C6.31278 6.75949 6.30174 6.74469 6.29119 6.72958C6.27408 6.7051 6.25745 6.68027 6.2413 6.65517C6.23538 6.64596 6.22966 6.63667 6.22386 6.62738C6.20884 6.60328 6.19414 6.57907 6.18001 6.55443C6.17481 6.54537 6.1699 6.53616 6.16478 6.52706C6.15206 6.50416 6.13962 6.48107 6.12766 6.45775C6.12339 6.44946 6.11924 6.44109 6.11509 6.43276C6.11445 6.43149 6.11384 6.43022 6.11324 6.42895C6.10208 6.40643 6.09141 6.38369 6.08098 6.36075C6.07603 6.34984 6.071 6.33897 6.06624 6.32802C6.05457 6.30119 6.04341 6.27412 6.03274 6.24683C6.02698 6.2321 6.02166 6.21722 6.01623 6.20238C6.01063 6.18715 6.00523 6.1718 5.99996 6.15642C5.99428 6.13977 5.98856 6.12311 5.98325 6.10638C5.97531 6.08136 5.96782 6.05619 5.96078 6.03086C5.95582 6.01309 5.95135 5.99516 5.9468 5.97727C5.94326 5.9632 5.93984 5.94913 5.93657 5.93498C5.93255 5.91763 5.92848 5.90032 5.92485 5.88289C5.91926 5.85575 5.91414 5.82846 5.90955 5.80101C5.90705 5.78621 5.90488 5.77136 5.90267 5.75656C5.8994 5.73462 5.89646 5.71257 5.89385 5.69044C5.89256 5.67953 5.89107 5.66862 5.8899 5.65771C5.88656 5.62521 5.88402 5.59248 5.88209 5.55964C5.88152 5.55019 5.88108 5.54075 5.88064 5.5313C5.87899 5.49618 5.87782 5.46094 5.87782 5.42547C5.87782 5.38746 5.87895 5.34972 5.88084 5.31213C5.88136 5.30191 5.88225 5.29178 5.88285 5.2816C5.88462 5.25338 5.88676 5.22523 5.88958 5.19725C5.89054 5.18749 5.89171 5.17778 5.8928 5.16806C5.89626 5.13776 5.90017 5.10761 5.90484 5.07766C5.90573 5.07184 5.90661 5.06598 5.90758 5.06015C6.04663 4.20969 6.66309 3.50886 7.48545 3.21763ZM2.73198 4.12422C2.73198 2.82671 3.83462 1.77108 5.19 1.77108C5.89727 1.77108 6.56539 2.06581 7.02733 2.56252C5.95498 3.00849 5.21171 3.97279 5.09037 5.09932C5.08953 5.10696 5.08892 5.11463 5.08816 5.1223C5.08413 5.16243 5.08095 5.20272 5.07853 5.24324C5.07781 5.25558 5.077 5.26787 5.0764 5.28025C5.0741 5.32848 5.07253 5.37686 5.07253 5.42559C5.07253 5.47478 5.07402 5.52386 5.07644 5.5729C5.07741 5.59264 5.0791 5.61218 5.08043 5.6318C5.0824 5.66003 5.08441 5.68825 5.08715 5.71639C5.08957 5.74141 5.09255 5.76627 5.09561 5.79114C5.09827 5.81281 5.10109 5.8344 5.10423 5.85599C5.10833 5.88432 5.11276 5.91254 5.11764 5.94065C5.12058 5.95734 5.1238 5.97399 5.12698 5.99065C5.13302 6.02211 5.13918 6.05349 5.14619 6.0846C5.14852 6.09485 5.15118 6.10503 5.1536 6.11525C5.18094 6.23102 5.21489 6.34436 5.25532 6.45489C5.2579 6.46203 5.26015 6.46923 5.26277 6.47633C5.23849 6.47702 5.21416 6.47737 5.18992 6.47737C3.83463 6.47733 2.73198 5.42173 2.73198 4.12422ZM4.65711 9.03966C4.64825 9.05303 4.63979 9.06664 4.63109 9.0801C4.61269 9.10855 4.59444 9.13708 4.57681 9.16588C4.56694 9.18195 4.55744 9.19814 4.54785 9.21434C4.53199 9.24105 4.51632 9.26785 4.5011 9.29487C4.49151 9.31187 4.48209 9.32895 4.47275 9.34603C4.45809 9.3729 4.44379 9.39993 4.42978 9.42703C4.42096 9.44407 4.41218 9.46107 4.40364 9.47819C4.38939 9.50675 4.37566 9.53555 4.36208 9.56439C4.35472 9.58008 4.34714 9.59566 4.34002 9.61142C4.32431 9.64597 4.30933 9.68078 4.29463 9.71571C4.29032 9.72592 4.28573 9.73602 4.28154 9.74624C4.2629 9.79162 4.24506 9.8373 4.22815 9.88322C4.22428 9.89374 4.22082 9.90438 4.21699 9.91491C4.20427 9.9503 4.19186 9.9858 4.18014 10.0215C4.17479 10.0378 4.16983 10.0543 4.16468 10.0707C4.15522 10.101 4.14591 10.1312 4.13718 10.1617C4.13198 10.1798 4.12703 10.198 4.12207 10.2162C4.1141 10.2454 4.10645 10.2747 4.0992 10.3041C4.09457 10.3227 4.09006 10.3413 4.08575 10.36C4.07882 10.3898 4.07234 10.4197 4.0661 10.4497C4.06235 10.4677 4.05849 10.4857 4.05498 10.5038C4.04866 10.5364 4.04298 10.5691 4.03747 10.6019C4.03489 10.6174 4.03203 10.6327 4.02961 10.6481C4.02212 10.6963 4.01532 10.7446 4.0096 10.7932C4.00952 10.7937 4.00948 10.7943 4.00944 10.7949C4.00424 10.839 3.99977 10.8833 3.99603 10.9276H1.64134V9.96094C1.64134 8.64022 2.43443 7.45455 3.67693 6.89099C4.12956 7.11876 4.6441 7.24841 5.18996 7.24841C5.34782 7.24841 5.50616 7.23723 5.6633 7.2151C5.68778 7.24853 5.71267 7.2816 5.73844 7.31406C5.74714 7.32498 5.75616 7.33562 5.76502 7.34641C5.79047 7.37756 5.81629 7.40836 5.84294 7.43855C5.85386 7.45093 5.86505 7.46303 5.87617 7.47525C5.90114 7.5027 5.92651 7.5298 5.95244 7.55637C5.96605 7.57036 5.9799 7.58412 5.99376 7.59789C6.01748 7.62129 6.04152 7.64434 6.06596 7.66705C6.07514 7.67557 6.0838 7.68459 6.09306 7.69303C6.05807 7.71327 6.0234 7.73401 5.98905 7.75518C5.98345 7.75861 5.97797 7.76223 5.97241 7.7657C5.93806 7.78706 5.90407 7.80888 5.87041 7.83113C5.85877 7.83884 5.84717 7.84662 5.83558 7.85441C5.80557 7.87465 5.77589 7.89524 5.74646 7.91617C5.73715 7.9228 5.72773 7.92928 5.71851 7.93599C5.68106 7.96309 5.64405 7.99069 5.60752 8.01891C5.59955 8.02508 5.59174 8.03144 5.58377 8.03769C5.55469 8.06047 5.5259 8.08364 5.49747 8.10716C5.48643 8.11626 5.47548 8.12543 5.46452 8.13465C5.43605 8.15866 5.40795 8.18303 5.38012 8.20774C5.37287 8.21418 5.36546 8.2205 5.35825 8.22702C5.3241 8.25778 5.29048 8.28912 5.25733 8.32101C5.24872 8.3293 5.2403 8.33774 5.23176 8.34607C5.20639 8.37086 5.1813 8.39591 5.15654 8.42132C5.14671 8.43142 5.13689 8.44152 5.12714 8.45174C5.09927 8.48088 5.07181 8.51041 5.04479 8.54037C5.04056 8.54507 5.03617 8.54962 5.03194 8.55436C5.00113 8.58879 4.97101 8.62387 4.94129 8.6593C4.933 8.66917 4.9249 8.6792 4.91673 8.68918C4.89438 8.71636 4.87235 8.74381 4.85068 8.77153C4.84231 8.78224 4.83389 8.79289 4.82564 8.80368C4.79729 8.84069 4.7693 8.87801 4.74212 8.91598C4.71292 8.95677 4.68465 8.99806 4.65711 9.03966ZM4.7873 12.229V11.6987V11.2623C4.7873 11.2195 4.78814 11.1769 4.7898 11.1343C4.79032 11.1204 4.79149 11.1065 4.79221 11.0925C4.79366 11.0641 4.79503 11.0357 4.79721 11.0075C4.79853 10.9903 4.80055 10.9733 4.80216 10.9562C4.80449 10.9313 4.80659 10.9064 4.80949 10.8816C4.81162 10.8635 4.8144 10.8455 4.81682 10.8274C4.81996 10.8038 4.8229 10.7802 4.82652 10.7568C4.82946 10.7381 4.83301 10.7196 4.83623 10.7011C4.84017 10.6785 4.84384 10.6558 4.84827 10.6333C4.85201 10.6143 4.85636 10.5955 4.86043 10.5766C4.8651 10.5548 4.86957 10.5329 4.87469 10.5112C4.8792 10.4921 4.88435 10.4731 4.88918 10.4541C4.89462 10.4329 4.89981 10.4116 4.90565 10.3905C4.91097 10.3713 4.91685 10.3524 4.92249 10.3334C4.92861 10.3126 4.93457 10.2919 4.94109 10.2714C4.94717 10.2522 4.95386 10.2333 4.96026 10.2143C4.96711 10.1941 4.97375 10.1739 4.98096 10.1539C4.9878 10.135 4.99517 10.1162 5.00234 10.0974C5.00991 10.0776 5.01732 10.0577 5.02526 10.038C5.03283 10.0193 5.04088 10.0009 5.04873 9.9823C5.05699 9.9629 5.06512 9.9434 5.07374 9.92416C5.08208 9.90561 5.09086 9.88726 5.09951 9.86891C5.10841 9.84998 5.11723 9.83098 5.1265 9.81224C5.13556 9.79393 5.14506 9.77585 5.15444 9.75769C5.16403 9.73919 5.17349 9.72064 5.1834 9.70233C5.19318 9.68429 5.20337 9.66648 5.21348 9.64863C5.22371 9.63055 5.23382 9.61246 5.24437 9.59458C5.25484 9.57684 5.26571 9.55938 5.27646 9.54184C5.28734 9.52418 5.29813 9.50648 5.30936 9.48898C5.32052 9.47159 5.33204 9.45448 5.34351 9.43728C5.35503 9.42005 5.36647 9.40282 5.37831 9.38578C5.39015 9.36874 5.40231 9.35193 5.41447 9.33512C5.42659 9.31835 5.43867 9.30158 5.45107 9.285C5.46356 9.26835 5.4764 9.25193 5.48925 9.23546C5.50198 9.21916 5.51466 9.20285 5.52767 9.18677C5.5408 9.17054 5.55425 9.15454 5.5677 9.1385C5.58103 9.12262 5.5944 9.10678 5.60801 9.09112C5.62174 9.0754 5.63575 9.05986 5.64977 9.04436C5.66374 9.0289 5.67776 9.01344 5.69205 8.99818C5.70635 8.98291 5.72097 8.96787 5.73554 8.95284C5.75012 8.93784 5.7647 8.92292 5.77956 8.9082C5.79446 8.89339 5.80964 8.87882 5.82486 8.86428C5.84005 8.84975 5.85531 8.83529 5.87077 8.82099C5.8862 8.80676 5.90186 8.79273 5.91761 8.77874C5.93339 8.7647 5.94926 8.75071 5.96533 8.73691C5.98135 8.72318 5.99754 8.70965 6.01385 8.6962C6.0302 8.68266 6.04667 8.66921 6.0633 8.65595C6.07985 8.64276 6.09657 8.62977 6.1134 8.61686C6.13035 8.60383 6.14743 8.59091 6.16466 8.57815C6.1817 8.56558 6.19889 8.55317 6.21617 8.54083C6.23373 8.5283 6.25141 8.51593 6.26929 8.50371C6.28676 8.49172 6.3044 8.47992 6.32216 8.4682C6.34036 8.45621 6.35865 8.44437 6.37709 8.43269C6.39501 8.42136 6.41309 8.41014 6.43125 8.39908C6.45006 8.38763 6.46899 8.37633 6.48803 8.36523C6.5064 8.35451 6.52488 8.34391 6.54349 8.3335C6.56282 8.32267 6.58231 8.31199 6.60192 8.30146C6.62073 8.29136 6.63965 8.28138 6.6587 8.27158C6.67863 8.26133 6.69873 8.25127 6.71894 8.24132C6.73811 8.23188 6.75736 8.22258 6.77677 8.21345C6.79204 8.20628 6.80746 8.19934 6.82288 8.19236C7.27548 8.42013 7.79009 8.54974 8.33592 8.54974C8.88178 8.54974 9.39636 8.42013 9.84895 8.19236C9.86426 8.1993 9.87956 8.2062 9.8947 8.21329C9.91435 8.22255 9.9338 8.23195 9.95321 8.24147C9.97319 8.25131 9.99308 8.26125 10.0128 8.27139C10.0321 8.2813 10.0512 8.2914 10.0702 8.30162C10.0896 8.31203 10.1088 8.32255 10.1279 8.33327C10.1468 8.34383 10.1655 8.35459 10.1841 8.36546C10.2029 8.37645 10.2216 8.38755 10.2401 8.39884C10.2585 8.41006 10.2768 8.4214 10.295 8.43292C10.3132 8.44445 10.3313 8.45617 10.3493 8.46801C10.3672 8.47984 10.385 8.49176 10.4027 8.50386C10.4204 8.51597 10.4379 8.52822 10.4553 8.54064C10.4727 8.55305 10.4901 8.56558 10.5073 8.5783C10.5244 8.59095 10.5413 8.60375 10.5581 8.61666C10.575 8.62966 10.5919 8.64272 10.6085 8.65599C10.6251 8.66917 10.6414 8.68255 10.6577 8.696C10.6741 8.70954 10.6904 8.72314 10.7065 8.73698C10.7225 8.75067 10.7382 8.76455 10.7539 8.77847C10.7697 8.79258 10.7856 8.80676 10.8011 8.82114C10.8165 8.83529 10.8316 8.84963 10.8466 8.86401C10.8619 8.87866 10.8772 8.89335 10.8922 8.90823C10.907 8.92288 10.9215 8.93769 10.936 8.95257C10.9507 8.96772 10.9654 8.98291 10.9798 8.99829C10.994 9.0134 11.0079 9.02871 11.0217 9.04405C11.0359 9.05967 11.05 9.07532 11.0638 9.0912C11.0774 9.10674 11.0906 9.12251 11.1039 9.13827C11.1174 9.15439 11.131 9.17046 11.1442 9.18681C11.1571 9.20281 11.1697 9.21904 11.1824 9.23527C11.1953 9.25177 11.2082 9.26831 11.2207 9.28504C11.2331 9.3015 11.2451 9.31824 11.2572 9.33493C11.2694 9.35181 11.2816 9.3687 11.2935 9.38582C11.3052 9.40274 11.3166 9.41986 11.328 9.43698C11.3396 9.45429 11.3512 9.47156 11.3624 9.48906C11.3735 9.50637 11.3843 9.52395 11.3951 9.54145C11.4059 9.55911 11.4169 9.57673 11.4274 9.59458C11.4379 9.61239 11.448 9.63043 11.4582 9.6484C11.4683 9.66632 11.4785 9.68421 11.4883 9.70229C11.4982 9.72056 11.5076 9.73911 11.5172 9.75758C11.5266 9.77573 11.5362 9.79385 11.5452 9.8122C11.5545 9.83094 11.5633 9.84987 11.5721 9.86876C11.5808 9.88723 11.5896 9.90558 11.598 9.9242C11.6066 9.94328 11.6146 9.9626 11.6228 9.98187C11.6308 10.0006 11.6389 10.0193 11.6465 10.0382C11.6544 10.0577 11.6618 10.0775 11.6693 10.0972C11.6765 10.1161 11.6839 10.1348 11.6907 10.1539C11.698 10.1739 11.7046 10.1943 11.7115 10.2145C11.7179 10.2334 11.7245 10.2523 11.7306 10.2714C11.7371 10.2919 11.7431 10.3127 11.7492 10.3334C11.7549 10.3524 11.7607 10.3713 11.7661 10.3905C11.7719 10.4116 11.7771 10.4329 11.7825 10.4541C11.7874 10.4731 11.7925 10.4921 11.797 10.5112C11.8021 10.5329 11.8066 10.5547 11.8113 10.5765C11.8154 10.5954 11.8197 10.6143 11.8234 10.6333C11.8278 10.6556 11.8315 10.6781 11.8354 10.7005C11.8387 10.7193 11.8423 10.738 11.8452 10.7568C11.8489 10.7801 11.8518 10.8035 11.8549 10.8269C11.8574 10.8451 11.8602 10.8632 11.8623 10.8816C11.8652 10.9063 11.8673 10.9313 11.8696 10.9562C11.8712 10.9733 11.8733 10.9903 11.8746 11.0074C11.8768 11.0357 11.8781 11.0641 11.8796 11.0926C11.8803 11.1065 11.8815 11.1204 11.882 11.1343C11.8836 11.1768 11.8845 11.2195 11.8845 11.2623V11.6986V12.229H4.7873ZM12.676 10.9276C12.6681 10.8337 12.6568 10.7404 12.6423 10.6476C12.64 10.6329 12.6373 10.6184 12.6349 10.6037C12.6293 10.5701 12.6234 10.5366 12.6169 10.5033C12.6135 10.4857 12.6098 10.4682 12.6061 10.4506C12.5998 10.4201 12.5932 10.3897 12.5861 10.3594C12.5819 10.3411 12.5774 10.3229 12.5729 10.3047C12.5655 10.2749 12.5578 10.2453 12.5498 10.2157C12.5449 10.1978 12.54 10.1799 12.5349 10.162C12.526 10.1312 12.5166 10.1006 12.507 10.07C12.502 10.0539 12.4971 10.0378 12.4919 10.0217C12.48 9.9855 12.4674 9.94949 12.4545 9.91356C12.4509 9.90353 12.4476 9.89339 12.4438 9.88337C12.4269 9.8373 12.409 9.7915 12.3903 9.74597C12.3863 9.73622 12.3819 9.72658 12.3778 9.71683C12.3629 9.68147 12.3477 9.6462 12.3318 9.61119C12.3247 9.59566 12.3173 9.58031 12.31 9.56485C12.2963 9.53571 12.2825 9.50668 12.2681 9.47784C12.2597 9.46096 12.251 9.44418 12.2423 9.42741C12.2282 9.40004 12.2137 9.37279 12.1989 9.34568C12.1897 9.32872 12.1804 9.31184 12.1709 9.29499C12.1556 9.26789 12.1398 9.24098 12.1239 9.21414C12.1143 9.19803 12.1049 9.18192 12.0951 9.16592C12.0773 9.13696 12.059 9.10832 12.0405 9.07971C12.0319 9.06637 12.0235 9.05292 12.0147 9.0397C11.9871 8.9981 11.9589 8.95681 11.9296 8.91598C11.9024 8.87797 11.8744 8.84065 11.8461 8.80364C11.8379 8.79292 11.8295 8.78232 11.8212 8.77168C11.7994 8.74381 11.7773 8.71628 11.7549 8.68899C11.7468 8.67916 11.7388 8.66921 11.7305 8.65946C11.7008 8.62391 11.6705 8.58875 11.6397 8.55425C11.6356 8.54978 11.6315 8.54542 11.6274 8.54095C11.6002 8.51076 11.5725 8.481 11.5445 8.45162C11.5348 8.44152 11.5251 8.43154 11.5153 8.42151C11.4905 8.39595 11.4652 8.3707 11.4397 8.3458C11.4313 8.33758 11.423 8.3293 11.4145 8.32116C11.3813 8.28924 11.3475 8.25778 11.3133 8.22694C11.3063 8.22058 11.299 8.21441 11.2919 8.20809C11.2639 8.18322 11.2357 8.15874 11.2071 8.13461C11.1962 8.12543 11.1852 8.11633 11.1743 8.10724C11.1458 8.08368 11.117 8.06051 11.0879 8.03769C11.0799 8.03148 11.0722 8.02512 11.0642 8.01895C11.0277 7.99073 10.9907 7.96313 10.9533 7.93606C10.9439 7.92932 10.9344 7.92276 10.9251 7.91609C10.8957 7.89528 10.8662 7.87477 10.8363 7.85464C10.8246 7.84674 10.8129 7.83887 10.8011 7.83109C10.7678 7.80907 10.7342 7.78748 10.7002 7.76636C10.6942 7.76266 10.6884 7.7588 10.6824 7.75514C10.6481 7.73405 10.6136 7.71335 10.5786 7.69315C10.5876 7.68494 10.5961 7.67619 10.605 7.66786C10.63 7.64473 10.6545 7.62121 10.6786 7.59731C10.6921 7.58397 10.7055 7.57059 10.7188 7.55702C10.7451 7.53003 10.7708 7.50251 10.7962 7.47463C10.807 7.4628 10.8178 7.45104 10.8284 7.43901C10.8554 7.4084 10.8817 7.37714 10.9075 7.34549C10.916 7.33515 10.9246 7.32498 10.9329 7.31453C10.9588 7.28195 10.9838 7.24872 11.0084 7.21518C11.1656 7.23727 11.3239 7.24845 11.4818 7.24845C12.0276 7.24845 12.5422 7.11884 12.9948 6.89103C14.2373 7.45459 15.0304 8.64026 15.0304 9.96098V10.9276H12.676Z"/>
  </mask>
  <path d="M15.8359 9.96094C15.8359 9.12066 15.5731 8.30929 15.0757 7.61454C14.718 7.11483 14.2573 6.69985 13.7235 6.39147C14.352 5.82167 14.7453 5.01632 14.7453 4.12419C14.7453 2.40152 13.2813 1 11.4819 1C10.4149 1 9.41536 1.50519 8.80825 2.33448C8.65397 2.31297 8.49635 2.30137 8.33592 2.30137C8.17548 2.30137 8.0179 2.31301 7.86363 2.33448C7.25647 1.50519 6.25696 1 5.19 1C3.39056 1 1.92658 2.40152 1.92658 4.12419C1.92658 5.01632 2.31982 5.82167 2.94836 6.39147C2.41449 6.69981 1.95384 7.11483 1.59616 7.6145C1.09882 8.30929 0.835938 9.12066 0.835938 9.96094V11.6987H3.98189V13H12.69V11.6987H15.8359V9.96094H15.8359ZM11.4819 1.77108C12.8372 1.77108 13.9399 2.82668 13.9399 4.12422C13.9399 5.42177 12.8372 6.47737 11.4819 6.47737C11.4576 6.47737 11.4333 6.47702 11.409 6.47633C11.4108 6.47139 11.4124 6.46634 11.4142 6.46141C11.4561 6.34752 11.4911 6.23056 11.5192 6.11108C11.5212 6.1026 11.5234 6.0942 11.5253 6.08568C11.5326 6.05345 11.539 6.02091 11.5453 5.9883C11.5482 5.97288 11.5512 5.95749 11.5539 5.94203C11.559 5.91293 11.5636 5.8837 11.5678 5.85437C11.5708 5.83397 11.5734 5.81358 11.5759 5.79315C11.5791 5.76724 11.5822 5.74129 11.5848 5.71519C11.5873 5.68855 11.5893 5.66188 11.5911 5.63516C11.5926 5.61411 11.5944 5.59314 11.5954 5.57197C11.5976 5.5266 11.5989 5.48114 11.599 5.43565C11.599 5.4323 11.5993 5.42902 11.5993 5.42563C11.5993 5.42382 11.5991 5.422 11.5991 5.42019C11.5991 5.37374 11.5977 5.32755 11.5955 5.28152C11.5948 5.26814 11.594 5.2548 11.5932 5.24146C11.5908 5.20233 11.5877 5.1634 11.5839 5.12465C11.583 5.11586 11.5823 5.10707 11.5813 5.09832C11.4596 3.97225 10.7165 3.00841 9.64454 2.56259C10.1065 2.06577 10.7746 1.77108 11.4819 1.77108ZM7.48545 3.21763C7.4933 3.2149 7.50124 3.21231 7.50909 3.20961C7.53353 3.20125 7.55818 3.19331 7.58294 3.18563C7.60171 3.17989 7.6206 3.17434 7.6396 3.16902C7.65342 3.16513 7.66727 3.16139 7.68116 3.15768C7.70597 3.15117 7.7309 3.14481 7.75607 3.13899C7.94211 3.09573 8.13614 3.07225 8.33584 3.07225C8.5357 3.07241 8.7298 3.09592 8.91589 3.13918C8.9409 3.14496 8.96566 3.15128 8.99035 3.15776C9.00445 3.1615 9.01854 3.16528 9.03251 3.16925C9.05128 3.17453 9.06996 3.18001 9.08853 3.18567C9.11362 3.19342 9.13855 3.20144 9.16327 3.20992C9.17088 3.21251 9.17849 3.21497 9.18606 3.21763C10.0081 3.50866 10.6244 4.20904 10.7639 5.059C10.765 5.06578 10.7661 5.07261 10.7671 5.07943C10.7716 5.10823 10.7753 5.13726 10.7787 5.16637C10.7799 5.17708 10.7812 5.18776 10.7823 5.19852C10.7849 5.22508 10.7869 5.25184 10.7887 5.27867C10.7894 5.29016 10.7904 5.30161 10.791 5.31313C10.7926 5.34741 10.7936 5.38187 10.7937 5.41653C10.7937 5.41954 10.7939 5.42247 10.7939 5.42547C10.7939 5.42686 10.7938 5.42829 10.7938 5.42968C10.7937 5.46322 10.7927 5.49653 10.7912 5.52972C10.7907 5.54017 10.7902 5.55061 10.7895 5.56102C10.7877 5.5931 10.7852 5.62502 10.7819 5.65671C10.7807 5.66897 10.779 5.68119 10.7775 5.69341C10.7751 5.71392 10.7724 5.73439 10.7694 5.75475C10.767 5.77059 10.7647 5.78648 10.762 5.80224C10.758 5.82626 10.7535 5.85013 10.7486 5.87391C10.7443 5.89508 10.7396 5.91617 10.7347 5.93721C10.7318 5.9499 10.7287 5.96258 10.7255 5.97519C10.7177 6.00645 10.709 6.03753 10.6999 6.06848C10.6962 6.08078 10.6928 6.09316 10.6889 6.10534C10.6833 6.12307 10.6773 6.14065 10.6713 6.15823C10.6664 6.17231 10.6615 6.1863 10.6564 6.20026C10.6506 6.2161 10.6449 6.23198 10.6387 6.24771C10.6283 6.27443 10.6174 6.30092 10.606 6.32717C10.6009 6.33889 10.5955 6.35049 10.5902 6.36217C10.5803 6.38403 10.57 6.40578 10.5594 6.42729C10.5582 6.42983 10.5569 6.43238 10.5557 6.43492C10.5518 6.44256 10.548 6.45023 10.5441 6.45786C10.5322 6.48115 10.5198 6.50416 10.5071 6.52699C10.5021 6.53585 10.4973 6.54483 10.4923 6.55366C10.4919 6.55424 10.4916 6.55478 10.4913 6.55532C10.4774 6.57961 10.4628 6.60351 10.4481 6.62726C10.4422 6.63667 10.4364 6.64611 10.4304 6.6554C10.4143 6.68042 10.3977 6.70517 10.3807 6.72954C10.3701 6.74469 10.359 6.75953 10.3481 6.77445C10.3388 6.7871 10.3295 6.79978 10.32 6.81223C10.3076 6.82835 10.295 6.84427 10.2822 6.86011C10.2735 6.87087 10.2647 6.88155 10.2558 6.89219C10.2423 6.90838 10.2287 6.9245 10.2147 6.94034C10.2061 6.95017 10.1972 6.95981 10.1884 6.96949C10.1739 6.98541 10.1594 7.00137 10.1445 7.0169C10.1356 7.02612 10.1265 7.03499 10.1174 7.04408C10.0932 7.06856 10.0684 7.09251 10.0431 7.11598C10.0281 7.1299 10.0131 7.14386 9.99775 7.15739C9.98712 7.16676 9.97621 7.17586 9.96537 7.18507C9.94774 7.20007 9.92998 7.21491 9.9119 7.2294C9.90271 7.23677 9.89345 7.24405 9.88415 7.2513C9.86228 7.26834 9.84013 7.28504 9.81762 7.30138C9.8115 7.30582 9.80546 7.31033 9.7993 7.31472C9.39015 7.6059 8.88371 7.7785 8.33588 7.7785C7.788 7.7785 7.28148 7.60587 6.87233 7.3146C6.86629 7.31029 6.86037 7.30585 6.85437 7.3015C6.83178 7.28511 6.80951 7.2683 6.78757 7.25119C6.77834 7.24398 6.76912 7.23677 6.76002 7.22944C6.74186 7.21487 6.72406 7.19995 6.70634 7.18492C6.69559 7.17574 6.68471 7.16672 6.67412 7.15739C6.6587 7.14382 6.64372 7.12982 6.62866 7.11591C6.60325 7.09235 6.5784 7.06833 6.55408 7.04378C6.54518 7.03479 6.53608 7.02604 6.52734 7.01694C6.5124 7.00137 6.49794 6.98537 6.48344 6.96945C6.47462 6.95977 6.46576 6.95017 6.45711 6.94034C6.44313 6.9245 6.42952 6.90838 6.41599 6.89223C6.40713 6.88159 6.39831 6.87091 6.38961 6.86011C6.37685 6.84431 6.36424 6.82839 6.35188 6.81227C6.34234 6.79978 6.33303 6.78706 6.32373 6.77437C6.31278 6.75949 6.30174 6.74469 6.29119 6.72958C6.27408 6.7051 6.25745 6.68027 6.2413 6.65517C6.23538 6.64596 6.22966 6.63667 6.22386 6.62738C6.20884 6.60328 6.19414 6.57907 6.18001 6.55443C6.17481 6.54537 6.1699 6.53616 6.16478 6.52706C6.15206 6.50416 6.13962 6.48107 6.12766 6.45775C6.12339 6.44946 6.11924 6.44109 6.11509 6.43276C6.11445 6.43149 6.11384 6.43022 6.11324 6.42895C6.10208 6.40643 6.09141 6.38369 6.08098 6.36075C6.07603 6.34984 6.071 6.33897 6.06624 6.32802C6.05457 6.30119 6.04341 6.27412 6.03274 6.24683C6.02698 6.2321 6.02166 6.21722 6.01623 6.20238C6.01063 6.18715 6.00523 6.1718 5.99996 6.15642C5.99428 6.13977 5.98856 6.12311 5.98325 6.10638C5.97531 6.08136 5.96782 6.05619 5.96078 6.03086C5.95582 6.01309 5.95135 5.99516 5.9468 5.97727C5.94326 5.9632 5.93984 5.94913 5.93657 5.93498C5.93255 5.91763 5.92848 5.90032 5.92485 5.88289C5.91926 5.85575 5.91414 5.82846 5.90955 5.80101C5.90705 5.78621 5.90488 5.77136 5.90267 5.75656C5.8994 5.73462 5.89646 5.71257 5.89385 5.69044C5.89256 5.67953 5.89107 5.66862 5.8899 5.65771C5.88656 5.62521 5.88402 5.59248 5.88209 5.55964C5.88152 5.55019 5.88108 5.54075 5.88064 5.5313C5.87899 5.49618 5.87782 5.46094 5.87782 5.42547C5.87782 5.38746 5.87895 5.34972 5.88084 5.31213C5.88136 5.30191 5.88225 5.29178 5.88285 5.2816C5.88462 5.25338 5.88676 5.22523 5.88958 5.19725C5.89054 5.18749 5.89171 5.17778 5.8928 5.16806C5.89626 5.13776 5.90017 5.10761 5.90484 5.07766C5.90573 5.07184 5.90661 5.06598 5.90758 5.06015C6.04663 4.20969 6.66309 3.50886 7.48545 3.21763ZM2.73198 4.12422C2.73198 2.82671 3.83462 1.77108 5.19 1.77108C5.89727 1.77108 6.56539 2.06581 7.02733 2.56252C5.95498 3.00849 5.21171 3.97279 5.09037 5.09932C5.08953 5.10696 5.08892 5.11463 5.08816 5.1223C5.08413 5.16243 5.08095 5.20272 5.07853 5.24324C5.07781 5.25558 5.077 5.26787 5.0764 5.28025C5.0741 5.32848 5.07253 5.37686 5.07253 5.42559C5.07253 5.47478 5.07402 5.52386 5.07644 5.5729C5.07741 5.59264 5.0791 5.61218 5.08043 5.6318C5.0824 5.66003 5.08441 5.68825 5.08715 5.71639C5.08957 5.74141 5.09255 5.76627 5.09561 5.79114C5.09827 5.81281 5.10109 5.8344 5.10423 5.85599C5.10833 5.88432 5.11276 5.91254 5.11764 5.94065C5.12058 5.95734 5.1238 5.97399 5.12698 5.99065C5.13302 6.02211 5.13918 6.05349 5.14619 6.0846C5.14852 6.09485 5.15118 6.10503 5.1536 6.11525C5.18094 6.23102 5.21489 6.34436 5.25532 6.45489C5.2579 6.46203 5.26015 6.46923 5.26277 6.47633C5.23849 6.47702 5.21416 6.47737 5.18992 6.47737C3.83463 6.47733 2.73198 5.42173 2.73198 4.12422ZM4.65711 9.03966C4.64825 9.05303 4.63979 9.06664 4.63109 9.0801C4.61269 9.10855 4.59444 9.13708 4.57681 9.16588C4.56694 9.18195 4.55744 9.19814 4.54785 9.21434C4.53199 9.24105 4.51632 9.26785 4.5011 9.29487C4.49151 9.31187 4.48209 9.32895 4.47275 9.34603C4.45809 9.3729 4.44379 9.39993 4.42978 9.42703C4.42096 9.44407 4.41218 9.46107 4.40364 9.47819C4.38939 9.50675 4.37566 9.53555 4.36208 9.56439C4.35472 9.58008 4.34714 9.59566 4.34002 9.61142C4.32431 9.64597 4.30933 9.68078 4.29463 9.71571C4.29032 9.72592 4.28573 9.73602 4.28154 9.74624C4.2629 9.79162 4.24506 9.8373 4.22815 9.88322C4.22428 9.89374 4.22082 9.90438 4.21699 9.91491C4.20427 9.9503 4.19186 9.9858 4.18014 10.0215C4.17479 10.0378 4.16983 10.0543 4.16468 10.0707C4.15522 10.101 4.14591 10.1312 4.13718 10.1617C4.13198 10.1798 4.12703 10.198 4.12207 10.2162C4.1141 10.2454 4.10645 10.2747 4.0992 10.3041C4.09457 10.3227 4.09006 10.3413 4.08575 10.36C4.07882 10.3898 4.07234 10.4197 4.0661 10.4497C4.06235 10.4677 4.05849 10.4857 4.05498 10.5038C4.04866 10.5364 4.04298 10.5691 4.03747 10.6019C4.03489 10.6174 4.03203 10.6327 4.02961 10.6481C4.02212 10.6963 4.01532 10.7446 4.0096 10.7932C4.00952 10.7937 4.00948 10.7943 4.00944 10.7949C4.00424 10.839 3.99977 10.8833 3.99603 10.9276H1.64134V9.96094C1.64134 8.64022 2.43443 7.45455 3.67693 6.89099C4.12956 7.11876 4.6441 7.24841 5.18996 7.24841C5.34782 7.24841 5.50616 7.23723 5.6633 7.2151C5.68778 7.24853 5.71267 7.2816 5.73844 7.31406C5.74714 7.32498 5.75616 7.33562 5.76502 7.34641C5.79047 7.37756 5.81629 7.40836 5.84294 7.43855C5.85386 7.45093 5.86505 7.46303 5.87617 7.47525C5.90114 7.5027 5.92651 7.5298 5.95244 7.55637C5.96605 7.57036 5.9799 7.58412 5.99376 7.59789C6.01748 7.62129 6.04152 7.64434 6.06596 7.66705C6.07514 7.67557 6.0838 7.68459 6.09306 7.69303C6.05807 7.71327 6.0234 7.73401 5.98905 7.75518C5.98345 7.75861 5.97797 7.76223 5.97241 7.7657C5.93806 7.78706 5.90407 7.80888 5.87041 7.83113C5.85877 7.83884 5.84717 7.84662 5.83558 7.85441C5.80557 7.87465 5.77589 7.89524 5.74646 7.91617C5.73715 7.9228 5.72773 7.92928 5.71851 7.93599C5.68106 7.96309 5.64405 7.99069 5.60752 8.01891C5.59955 8.02508 5.59174 8.03144 5.58377 8.03769C5.55469 8.06047 5.5259 8.08364 5.49747 8.10716C5.48643 8.11626 5.47548 8.12543 5.46452 8.13465C5.43605 8.15866 5.40795 8.18303 5.38012 8.20774C5.37287 8.21418 5.36546 8.2205 5.35825 8.22702C5.3241 8.25778 5.29048 8.28912 5.25733 8.32101C5.24872 8.3293 5.2403 8.33774 5.23176 8.34607C5.20639 8.37086 5.1813 8.39591 5.15654 8.42132C5.14671 8.43142 5.13689 8.44152 5.12714 8.45174C5.09927 8.48088 5.07181 8.51041 5.04479 8.54037C5.04056 8.54507 5.03617 8.54962 5.03194 8.55436C5.00113 8.58879 4.97101 8.62387 4.94129 8.6593C4.933 8.66917 4.9249 8.6792 4.91673 8.68918C4.89438 8.71636 4.87235 8.74381 4.85068 8.77153C4.84231 8.78224 4.83389 8.79289 4.82564 8.80368C4.79729 8.84069 4.7693 8.87801 4.74212 8.91598C4.71292 8.95677 4.68465 8.99806 4.65711 9.03966ZM4.7873 12.229V11.6987V11.2623C4.7873 11.2195 4.78814 11.1769 4.7898 11.1343C4.79032 11.1204 4.79149 11.1065 4.79221 11.0925C4.79366 11.0641 4.79503 11.0357 4.79721 11.0075C4.79853 10.9903 4.80055 10.9733 4.80216 10.9562C4.80449 10.9313 4.80659 10.9064 4.80949 10.8816C4.81162 10.8635 4.8144 10.8455 4.81682 10.8274C4.81996 10.8038 4.8229 10.7802 4.82652 10.7568C4.82946 10.7381 4.83301 10.7196 4.83623 10.7011C4.84017 10.6785 4.84384 10.6558 4.84827 10.6333C4.85201 10.6143 4.85636 10.5955 4.86043 10.5766C4.8651 10.5548 4.86957 10.5329 4.87469 10.5112C4.8792 10.4921 4.88435 10.4731 4.88918 10.4541C4.89462 10.4329 4.89981 10.4116 4.90565 10.3905C4.91097 10.3713 4.91685 10.3524 4.92249 10.3334C4.92861 10.3126 4.93457 10.2919 4.94109 10.2714C4.94717 10.2522 4.95386 10.2333 4.96026 10.2143C4.96711 10.1941 4.97375 10.1739 4.98096 10.1539C4.9878 10.135 4.99517 10.1162 5.00234 10.0974C5.00991 10.0776 5.01732 10.0577 5.02526 10.038C5.03283 10.0193 5.04088 10.0009 5.04873 9.9823C5.05699 9.9629 5.06512 9.9434 5.07374 9.92416C5.08208 9.90561 5.09086 9.88726 5.09951 9.86891C5.10841 9.84998 5.11723 9.83098 5.1265 9.81224C5.13556 9.79393 5.14506 9.77585 5.15444 9.75769C5.16403 9.73919 5.17349 9.72064 5.1834 9.70233C5.19318 9.68429 5.20337 9.66648 5.21348 9.64863C5.22371 9.63055 5.23382 9.61246 5.24437 9.59458C5.25484 9.57684 5.26571 9.55938 5.27646 9.54184C5.28734 9.52418 5.29813 9.50648 5.30936 9.48898C5.32052 9.47159 5.33204 9.45448 5.34351 9.43728C5.35503 9.42005 5.36647 9.40282 5.37831 9.38578C5.39015 9.36874 5.40231 9.35193 5.41447 9.33512C5.42659 9.31835 5.43867 9.30158 5.45107 9.285C5.46356 9.26835 5.4764 9.25193 5.48925 9.23546C5.50198 9.21916 5.51466 9.20285 5.52767 9.18677C5.5408 9.17054 5.55425 9.15454 5.5677 9.1385C5.58103 9.12262 5.5944 9.10678 5.60801 9.09112C5.62174 9.0754 5.63575 9.05986 5.64977 9.04436C5.66374 9.0289 5.67776 9.01344 5.69205 8.99818C5.70635 8.98291 5.72097 8.96787 5.73554 8.95284C5.75012 8.93784 5.7647 8.92292 5.77956 8.9082C5.79446 8.89339 5.80964 8.87882 5.82486 8.86428C5.84005 8.84975 5.85531 8.83529 5.87077 8.82099C5.8862 8.80676 5.90186 8.79273 5.91761 8.77874C5.93339 8.7647 5.94926 8.75071 5.96533 8.73691C5.98135 8.72318 5.99754 8.70965 6.01385 8.6962C6.0302 8.68266 6.04667 8.66921 6.0633 8.65595C6.07985 8.64276 6.09657 8.62977 6.1134 8.61686C6.13035 8.60383 6.14743 8.59091 6.16466 8.57815C6.1817 8.56558 6.19889 8.55317 6.21617 8.54083C6.23373 8.5283 6.25141 8.51593 6.26929 8.50371C6.28676 8.49172 6.3044 8.47992 6.32216 8.4682C6.34036 8.45621 6.35865 8.44437 6.37709 8.43269C6.39501 8.42136 6.41309 8.41014 6.43125 8.39908C6.45006 8.38763 6.46899 8.37633 6.48803 8.36523C6.5064 8.35451 6.52488 8.34391 6.54349 8.3335C6.56282 8.32267 6.58231 8.31199 6.60192 8.30146C6.62073 8.29136 6.63965 8.28138 6.6587 8.27158C6.67863 8.26133 6.69873 8.25127 6.71894 8.24132C6.73811 8.23188 6.75736 8.22258 6.77677 8.21345C6.79204 8.20628 6.80746 8.19934 6.82288 8.19236C7.27548 8.42013 7.79009 8.54974 8.33592 8.54974C8.88178 8.54974 9.39636 8.42013 9.84895 8.19236C9.86426 8.1993 9.87956 8.2062 9.8947 8.21329C9.91435 8.22255 9.9338 8.23195 9.95321 8.24147C9.97319 8.25131 9.99308 8.26125 10.0128 8.27139C10.0321 8.2813 10.0512 8.2914 10.0702 8.30162C10.0896 8.31203 10.1088 8.32255 10.1279 8.33327C10.1468 8.34383 10.1655 8.35459 10.1841 8.36546C10.2029 8.37645 10.2216 8.38755 10.2401 8.39884C10.2585 8.41006 10.2768 8.4214 10.295 8.43292C10.3132 8.44445 10.3313 8.45617 10.3493 8.46801C10.3672 8.47984 10.385 8.49176 10.4027 8.50386C10.4204 8.51597 10.4379 8.52822 10.4553 8.54064C10.4727 8.55305 10.4901 8.56558 10.5073 8.5783C10.5244 8.59095 10.5413 8.60375 10.5581 8.61666C10.575 8.62966 10.5919 8.64272 10.6085 8.65599C10.6251 8.66917 10.6414 8.68255 10.6577 8.696C10.6741 8.70954 10.6904 8.72314 10.7065 8.73698C10.7225 8.75067 10.7382 8.76455 10.7539 8.77847C10.7697 8.79258 10.7856 8.80676 10.8011 8.82114C10.8165 8.83529 10.8316 8.84963 10.8466 8.86401C10.8619 8.87866 10.8772 8.89335 10.8922 8.90823C10.907 8.92288 10.9215 8.93769 10.936 8.95257C10.9507 8.96772 10.9654 8.98291 10.9798 8.99829C10.994 9.0134 11.0079 9.02871 11.0217 9.04405C11.0359 9.05967 11.05 9.07532 11.0638 9.0912C11.0774 9.10674 11.0906 9.12251 11.1039 9.13827C11.1174 9.15439 11.131 9.17046 11.1442 9.18681C11.1571 9.20281 11.1697 9.21904 11.1824 9.23527C11.1953 9.25177 11.2082 9.26831 11.2207 9.28504C11.2331 9.3015 11.2451 9.31824 11.2572 9.33493C11.2694 9.35181 11.2816 9.3687 11.2935 9.38582C11.3052 9.40274 11.3166 9.41986 11.328 9.43698C11.3396 9.45429 11.3512 9.47156 11.3624 9.48906C11.3735 9.50637 11.3843 9.52395 11.3951 9.54145C11.4059 9.55911 11.4169 9.57673 11.4274 9.59458C11.4379 9.61239 11.448 9.63043 11.4582 9.6484C11.4683 9.66632 11.4785 9.68421 11.4883 9.70229C11.4982 9.72056 11.5076 9.73911 11.5172 9.75758C11.5266 9.77573 11.5362 9.79385 11.5452 9.8122C11.5545 9.83094 11.5633 9.84987 11.5721 9.86876C11.5808 9.88723 11.5896 9.90558 11.598 9.9242C11.6066 9.94328 11.6146 9.9626 11.6228 9.98187C11.6308 10.0006 11.6389 10.0193 11.6465 10.0382C11.6544 10.0577 11.6618 10.0775 11.6693 10.0972C11.6765 10.1161 11.6839 10.1348 11.6907 10.1539C11.698 10.1739 11.7046 10.1943 11.7115 10.2145C11.7179 10.2334 11.7245 10.2523 11.7306 10.2714C11.7371 10.2919 11.7431 10.3127 11.7492 10.3334C11.7549 10.3524 11.7607 10.3713 11.7661 10.3905C11.7719 10.4116 11.7771 10.4329 11.7825 10.4541C11.7874 10.4731 11.7925 10.4921 11.797 10.5112C11.8021 10.5329 11.8066 10.5547 11.8113 10.5765C11.8154 10.5954 11.8197 10.6143 11.8234 10.6333C11.8278 10.6556 11.8315 10.6781 11.8354 10.7005C11.8387 10.7193 11.8423 10.738 11.8452 10.7568C11.8489 10.7801 11.8518 10.8035 11.8549 10.8269C11.8574 10.8451 11.8602 10.8632 11.8623 10.8816C11.8652 10.9063 11.8673 10.9313 11.8696 10.9562C11.8712 10.9733 11.8733 10.9903 11.8746 11.0074C11.8768 11.0357 11.8781 11.0641 11.8796 11.0926C11.8803 11.1065 11.8815 11.1204 11.882 11.1343C11.8836 11.1768 11.8845 11.2195 11.8845 11.2623V11.6986V12.229H4.7873ZM12.676 10.9276C12.6681 10.8337 12.6568 10.7404 12.6423 10.6476C12.64 10.6329 12.6373 10.6184 12.6349 10.6037C12.6293 10.5701 12.6234 10.5366 12.6169 10.5033C12.6135 10.4857 12.6098 10.4682 12.6061 10.4506C12.5998 10.4201 12.5932 10.3897 12.5861 10.3594C12.5819 10.3411 12.5774 10.3229 12.5729 10.3047C12.5655 10.2749 12.5578 10.2453 12.5498 10.2157C12.5449 10.1978 12.54 10.1799 12.5349 10.162C12.526 10.1312 12.5166 10.1006 12.507 10.07C12.502 10.0539 12.4971 10.0378 12.4919 10.0217C12.48 9.9855 12.4674 9.94949 12.4545 9.91356C12.4509 9.90353 12.4476 9.89339 12.4438 9.88337C12.4269 9.8373 12.409 9.7915 12.3903 9.74597C12.3863 9.73622 12.3819 9.72658 12.3778 9.71683C12.3629 9.68147 12.3477 9.6462 12.3318 9.61119C12.3247 9.59566 12.3173 9.58031 12.31 9.56485C12.2963 9.53571 12.2825 9.50668 12.2681 9.47784C12.2597 9.46096 12.251 9.44418 12.2423 9.42741C12.2282 9.40004 12.2137 9.37279 12.1989 9.34568C12.1897 9.32872 12.1804 9.31184 12.1709 9.29499C12.1556 9.26789 12.1398 9.24098 12.1239 9.21414C12.1143 9.19803 12.1049 9.18192 12.0951 9.16592C12.0773 9.13696 12.059 9.10832 12.0405 9.07971C12.0319 9.06637 12.0235 9.05292 12.0147 9.0397C11.9871 8.9981 11.9589 8.95681 11.9296 8.91598C11.9024 8.87797 11.8744 8.84065 11.8461 8.80364C11.8379 8.79292 11.8295 8.78232 11.8212 8.77168C11.7994 8.74381 11.7773 8.71628 11.7549 8.68899C11.7468 8.67916 11.7388 8.66921 11.7305 8.65946C11.7008 8.62391 11.6705 8.58875 11.6397 8.55425C11.6356 8.54978 11.6315 8.54542 11.6274 8.54095C11.6002 8.51076 11.5725 8.481 11.5445 8.45162C11.5348 8.44152 11.5251 8.43154 11.5153 8.42151C11.4905 8.39595 11.4652 8.3707 11.4397 8.3458C11.4313 8.33758 11.423 8.3293 11.4145 8.32116C11.3813 8.28924 11.3475 8.25778 11.3133 8.22694C11.3063 8.22058 11.299 8.21441 11.2919 8.20809C11.2639 8.18322 11.2357 8.15874 11.2071 8.13461C11.1962 8.12543 11.1852 8.11633 11.1743 8.10724C11.1458 8.08368 11.117 8.06051 11.0879 8.03769C11.0799 8.03148 11.0722 8.02512 11.0642 8.01895C11.0277 7.99073 10.9907 7.96313 10.9533 7.93606C10.9439 7.92932 10.9344 7.92276 10.9251 7.91609C10.8957 7.89528 10.8662 7.87477 10.8363 7.85464C10.8246 7.84674 10.8129 7.83887 10.8011 7.83109C10.7678 7.80907 10.7342 7.78748 10.7002 7.76636C10.6942 7.76266 10.6884 7.7588 10.6824 7.75514C10.6481 7.73405 10.6136 7.71335 10.5786 7.69315C10.5876 7.68494 10.5961 7.67619 10.605 7.66786C10.63 7.64473 10.6545 7.62121 10.6786 7.59731C10.6921 7.58397 10.7055 7.57059 10.7188 7.55702C10.7451 7.53003 10.7708 7.50251 10.7962 7.47463C10.807 7.4628 10.8178 7.45104 10.8284 7.43901C10.8554 7.4084 10.8817 7.37714 10.9075 7.34549C10.916 7.33515 10.9246 7.32498 10.9329 7.31453C10.9588 7.28195 10.9838 7.24872 11.0084 7.21518C11.1656 7.23727 11.3239 7.24845 11.4818 7.24845C12.0276 7.24845 12.5422 7.11884 12.9948 6.89103C14.2373 7.45459 15.0304 8.64026 15.0304 9.96098V10.9276H12.676Z" fill="#161E29"/>
  <path d="M15.8359 9.96094C15.8359 9.12066 15.5731 8.30929 15.0757 7.61454C14.718 7.11483 14.2573 6.69985 13.7235 6.39147C14.352 5.82167 14.7453 5.01632 14.7453 4.12419C14.7453 2.40152 13.2813 1 11.4819 1C10.4149 1 9.41536 1.50519 8.80825 2.33448C8.65397 2.31297 8.49635 2.30137 8.33592 2.30137C8.17548 2.30137 8.0179 2.31301 7.86363 2.33448C7.25647 1.50519 6.25696 1 5.19 1C3.39056 1 1.92658 2.40152 1.92658 4.12419C1.92658 5.01632 2.31982 5.82167 2.94836 6.39147C2.41449 6.69981 1.95384 7.11483 1.59616 7.6145C1.09882 8.30929 0.835938 9.12066 0.835938 9.96094V11.6987H3.98189V13H12.69V11.6987H15.8359V9.96094H15.8359ZM11.4819 1.77108C12.8372 1.77108 13.9399 2.82668 13.9399 4.12422C13.9399 5.42177 12.8372 6.47737 11.4819 6.47737C11.4576 6.47737 11.4333 6.47702 11.409 6.47633C11.4108 6.47139 11.4124 6.46634 11.4142 6.46141C11.4561 6.34752 11.4911 6.23056 11.5192 6.11108C11.5212 6.1026 11.5234 6.0942 11.5253 6.08568C11.5326 6.05345 11.539 6.02091 11.5453 5.9883C11.5482 5.97288 11.5512 5.95749 11.5539 5.94203C11.559 5.91293 11.5636 5.8837 11.5678 5.85437C11.5708 5.83397 11.5734 5.81358 11.5759 5.79315C11.5791 5.76724 11.5822 5.74129 11.5848 5.71519C11.5873 5.68855 11.5893 5.66188 11.5911 5.63516C11.5926 5.61411 11.5944 5.59314 11.5954 5.57197C11.5976 5.5266 11.5989 5.48114 11.599 5.43565C11.599 5.4323 11.5993 5.42902 11.5993 5.42563C11.5993 5.42382 11.5991 5.422 11.5991 5.42019C11.5991 5.37374 11.5977 5.32755 11.5955 5.28152C11.5948 5.26814 11.594 5.2548 11.5932 5.24146C11.5908 5.20233 11.5877 5.1634 11.5839 5.12465C11.583 5.11586 11.5823 5.10707 11.5813 5.09832C11.4596 3.97225 10.7165 3.00841 9.64454 2.56259C10.1065 2.06577 10.7746 1.77108 11.4819 1.77108ZM7.48545 3.21763C7.4933 3.2149 7.50124 3.21231 7.50909 3.20961C7.53353 3.20125 7.55818 3.19331 7.58294 3.18563C7.60171 3.17989 7.6206 3.17434 7.6396 3.16902C7.65342 3.16513 7.66727 3.16139 7.68116 3.15768C7.70597 3.15117 7.7309 3.14481 7.75607 3.13899C7.94211 3.09573 8.13614 3.07225 8.33584 3.07225C8.5357 3.07241 8.7298 3.09592 8.91589 3.13918C8.9409 3.14496 8.96566 3.15128 8.99035 3.15776C9.00445 3.1615 9.01854 3.16528 9.03251 3.16925C9.05128 3.17453 9.06996 3.18001 9.08853 3.18567C9.11362 3.19342 9.13855 3.20144 9.16327 3.20992C9.17088 3.21251 9.17849 3.21497 9.18606 3.21763C10.0081 3.50866 10.6244 4.20904 10.7639 5.059C10.765 5.06578 10.7661 5.07261 10.7671 5.07943C10.7716 5.10823 10.7753 5.13726 10.7787 5.16637C10.7799 5.17708 10.7812 5.18776 10.7823 5.19852C10.7849 5.22508 10.7869 5.25184 10.7887 5.27867C10.7894 5.29016 10.7904 5.30161 10.791 5.31313C10.7926 5.34741 10.7936 5.38187 10.7937 5.41653C10.7937 5.41954 10.7939 5.42247 10.7939 5.42547C10.7939 5.42686 10.7938 5.42829 10.7938 5.42968C10.7937 5.46322 10.7927 5.49653 10.7912 5.52972C10.7907 5.54017 10.7902 5.55061 10.7895 5.56102C10.7877 5.5931 10.7852 5.62502 10.7819 5.65671C10.7807 5.66897 10.779 5.68119 10.7775 5.69341C10.7751 5.71392 10.7724 5.73439 10.7694 5.75475C10.767 5.77059 10.7647 5.78648 10.762 5.80224C10.758 5.82626 10.7535 5.85013 10.7486 5.87391C10.7443 5.89508 10.7396 5.91617 10.7347 5.93721C10.7318 5.9499 10.7287 5.96258 10.7255 5.97519C10.7177 6.00645 10.709 6.03753 10.6999 6.06848C10.6962 6.08078 10.6928 6.09316 10.6889 6.10534C10.6833 6.12307 10.6773 6.14065 10.6713 6.15823C10.6664 6.17231 10.6615 6.1863 10.6564 6.20026C10.6506 6.2161 10.6449 6.23198 10.6387 6.24771C10.6283 6.27443 10.6174 6.30092 10.606 6.32717C10.6009 6.33889 10.5955 6.35049 10.5902 6.36217C10.5803 6.38403 10.57 6.40578 10.5594 6.42729C10.5582 6.42983 10.5569 6.43238 10.5557 6.43492C10.5518 6.44256 10.548 6.45023 10.5441 6.45786C10.5322 6.48115 10.5198 6.50416 10.5071 6.52699C10.5021 6.53585 10.4973 6.54483 10.4923 6.55366C10.4919 6.55424 10.4916 6.55478 10.4913 6.55532C10.4774 6.57961 10.4628 6.60351 10.4481 6.62726C10.4422 6.63667 10.4364 6.64611 10.4304 6.6554C10.4143 6.68042 10.3977 6.70517 10.3807 6.72954C10.3701 6.74469 10.359 6.75953 10.3481 6.77445C10.3388 6.7871 10.3295 6.79978 10.32 6.81223C10.3076 6.82835 10.295 6.84427 10.2822 6.86011C10.2735 6.87087 10.2647 6.88155 10.2558 6.89219C10.2423 6.90838 10.2287 6.9245 10.2147 6.94034C10.2061 6.95017 10.1972 6.95981 10.1884 6.96949C10.1739 6.98541 10.1594 7.00137 10.1445 7.0169C10.1356 7.02612 10.1265 7.03499 10.1174 7.04408C10.0932 7.06856 10.0684 7.09251 10.0431 7.11598C10.0281 7.1299 10.0131 7.14386 9.99775 7.15739C9.98712 7.16676 9.97621 7.17586 9.96537 7.18507C9.94774 7.20007 9.92998 7.21491 9.9119 7.2294C9.90271 7.23677 9.89345 7.24405 9.88415 7.2513C9.86228 7.26834 9.84013 7.28504 9.81762 7.30138C9.8115 7.30582 9.80546 7.31033 9.7993 7.31472C9.39015 7.6059 8.88371 7.7785 8.33588 7.7785C7.788 7.7785 7.28148 7.60587 6.87233 7.3146C6.86629 7.31029 6.86037 7.30585 6.85437 7.3015C6.83178 7.28511 6.80951 7.2683 6.78757 7.25119C6.77834 7.24398 6.76912 7.23677 6.76002 7.22944C6.74186 7.21487 6.72406 7.19995 6.70634 7.18492C6.69559 7.17574 6.68471 7.16672 6.67412 7.15739C6.6587 7.14382 6.64372 7.12982 6.62866 7.11591C6.60325 7.09235 6.5784 7.06833 6.55408 7.04378C6.54518 7.03479 6.53608 7.02604 6.52734 7.01694C6.5124 7.00137 6.49794 6.98537 6.48344 6.96945C6.47462 6.95977 6.46576 6.95017 6.45711 6.94034C6.44313 6.9245 6.42952 6.90838 6.41599 6.89223C6.40713 6.88159 6.39831 6.87091 6.38961 6.86011C6.37685 6.84431 6.36424 6.82839 6.35188 6.81227C6.34234 6.79978 6.33303 6.78706 6.32373 6.77437C6.31278 6.75949 6.30174 6.74469 6.29119 6.72958C6.27408 6.7051 6.25745 6.68027 6.2413 6.65517C6.23538 6.64596 6.22966 6.63667 6.22386 6.62738C6.20884 6.60328 6.19414 6.57907 6.18001 6.55443C6.17481 6.54537 6.1699 6.53616 6.16478 6.52706C6.15206 6.50416 6.13962 6.48107 6.12766 6.45775C6.12339 6.44946 6.11924 6.44109 6.11509 6.43276C6.11445 6.43149 6.11384 6.43022 6.11324 6.42895C6.10208 6.40643 6.09141 6.38369 6.08098 6.36075C6.07603 6.34984 6.071 6.33897 6.06624 6.32802C6.05457 6.30119 6.04341 6.27412 6.03274 6.24683C6.02698 6.2321 6.02166 6.21722 6.01623 6.20238C6.01063 6.18715 6.00523 6.1718 5.99996 6.15642C5.99428 6.13977 5.98856 6.12311 5.98325 6.10638C5.97531 6.08136 5.96782 6.05619 5.96078 6.03086C5.95582 6.01309 5.95135 5.99516 5.9468 5.97727C5.94326 5.9632 5.93984 5.94913 5.93657 5.93498C5.93255 5.91763 5.92848 5.90032 5.92485 5.88289C5.91926 5.85575 5.91414 5.82846 5.90955 5.80101C5.90705 5.78621 5.90488 5.77136 5.90267 5.75656C5.8994 5.73462 5.89646 5.71257 5.89385 5.69044C5.89256 5.67953 5.89107 5.66862 5.8899 5.65771C5.88656 5.62521 5.88402 5.59248 5.88209 5.55964C5.88152 5.55019 5.88108 5.54075 5.88064 5.5313C5.87899 5.49618 5.87782 5.46094 5.87782 5.42547C5.87782 5.38746 5.87895 5.34972 5.88084 5.31213C5.88136 5.30191 5.88225 5.29178 5.88285 5.2816C5.88462 5.25338 5.88676 5.22523 5.88958 5.19725C5.89054 5.18749 5.89171 5.17778 5.8928 5.16806C5.89626 5.13776 5.90017 5.10761 5.90484 5.07766C5.90573 5.07184 5.90661 5.06598 5.90758 5.06015C6.04663 4.20969 6.66309 3.50886 7.48545 3.21763ZM2.73198 4.12422C2.73198 2.82671 3.83462 1.77108 5.19 1.77108C5.89727 1.77108 6.56539 2.06581 7.02733 2.56252C5.95498 3.00849 5.21171 3.97279 5.09037 5.09932C5.08953 5.10696 5.08892 5.11463 5.08816 5.1223C5.08413 5.16243 5.08095 5.20272 5.07853 5.24324C5.07781 5.25558 5.077 5.26787 5.0764 5.28025C5.0741 5.32848 5.07253 5.37686 5.07253 5.42559C5.07253 5.47478 5.07402 5.52386 5.07644 5.5729C5.07741 5.59264 5.0791 5.61218 5.08043 5.6318C5.0824 5.66003 5.08441 5.68825 5.08715 5.71639C5.08957 5.74141 5.09255 5.76627 5.09561 5.79114C5.09827 5.81281 5.10109 5.8344 5.10423 5.85599C5.10833 5.88432 5.11276 5.91254 5.11764 5.94065C5.12058 5.95734 5.1238 5.97399 5.12698 5.99065C5.13302 6.02211 5.13918 6.05349 5.14619 6.0846C5.14852 6.09485 5.15118 6.10503 5.1536 6.11525C5.18094 6.23102 5.21489 6.34436 5.25532 6.45489C5.2579 6.46203 5.26015 6.46923 5.26277 6.47633C5.23849 6.47702 5.21416 6.47737 5.18992 6.47737C3.83463 6.47733 2.73198 5.42173 2.73198 4.12422ZM4.65711 9.03966C4.64825 9.05303 4.63979 9.06664 4.63109 9.0801C4.61269 9.10855 4.59444 9.13708 4.57681 9.16588C4.56694 9.18195 4.55744 9.19814 4.54785 9.21434C4.53199 9.24105 4.51632 9.26785 4.5011 9.29487C4.49151 9.31187 4.48209 9.32895 4.47275 9.34603C4.45809 9.3729 4.44379 9.39993 4.42978 9.42703C4.42096 9.44407 4.41218 9.46107 4.40364 9.47819C4.38939 9.50675 4.37566 9.53555 4.36208 9.56439C4.35472 9.58008 4.34714 9.59566 4.34002 9.61142C4.32431 9.64597 4.30933 9.68078 4.29463 9.71571C4.29032 9.72592 4.28573 9.73602 4.28154 9.74624C4.2629 9.79162 4.24506 9.8373 4.22815 9.88322C4.22428 9.89374 4.22082 9.90438 4.21699 9.91491C4.20427 9.9503 4.19186 9.9858 4.18014 10.0215C4.17479 10.0378 4.16983 10.0543 4.16468 10.0707C4.15522 10.101 4.14591 10.1312 4.13718 10.1617C4.13198 10.1798 4.12703 10.198 4.12207 10.2162C4.1141 10.2454 4.10645 10.2747 4.0992 10.3041C4.09457 10.3227 4.09006 10.3413 4.08575 10.36C4.07882 10.3898 4.07234 10.4197 4.0661 10.4497C4.06235 10.4677 4.05849 10.4857 4.05498 10.5038C4.04866 10.5364 4.04298 10.5691 4.03747 10.6019C4.03489 10.6174 4.03203 10.6327 4.02961 10.6481C4.02212 10.6963 4.01532 10.7446 4.0096 10.7932C4.00952 10.7937 4.00948 10.7943 4.00944 10.7949C4.00424 10.839 3.99977 10.8833 3.99603 10.9276H1.64134V9.96094C1.64134 8.64022 2.43443 7.45455 3.67693 6.89099C4.12956 7.11876 4.6441 7.24841 5.18996 7.24841C5.34782 7.24841 5.50616 7.23723 5.6633 7.2151C5.68778 7.24853 5.71267 7.2816 5.73844 7.31406C5.74714 7.32498 5.75616 7.33562 5.76502 7.34641C5.79047 7.37756 5.81629 7.40836 5.84294 7.43855C5.85386 7.45093 5.86505 7.46303 5.87617 7.47525C5.90114 7.5027 5.92651 7.5298 5.95244 7.55637C5.96605 7.57036 5.9799 7.58412 5.99376 7.59789C6.01748 7.62129 6.04152 7.64434 6.06596 7.66705C6.07514 7.67557 6.0838 7.68459 6.09306 7.69303C6.05807 7.71327 6.0234 7.73401 5.98905 7.75518C5.98345 7.75861 5.97797 7.76223 5.97241 7.7657C5.93806 7.78706 5.90407 7.80888 5.87041 7.83113C5.85877 7.83884 5.84717 7.84662 5.83558 7.85441C5.80557 7.87465 5.77589 7.89524 5.74646 7.91617C5.73715 7.9228 5.72773 7.92928 5.71851 7.93599C5.68106 7.96309 5.64405 7.99069 5.60752 8.01891C5.59955 8.02508 5.59174 8.03144 5.58377 8.03769C5.55469 8.06047 5.5259 8.08364 5.49747 8.10716C5.48643 8.11626 5.47548 8.12543 5.46452 8.13465C5.43605 8.15866 5.40795 8.18303 5.38012 8.20774C5.37287 8.21418 5.36546 8.2205 5.35825 8.22702C5.3241 8.25778 5.29048 8.28912 5.25733 8.32101C5.24872 8.3293 5.2403 8.33774 5.23176 8.34607C5.20639 8.37086 5.1813 8.39591 5.15654 8.42132C5.14671 8.43142 5.13689 8.44152 5.12714 8.45174C5.09927 8.48088 5.07181 8.51041 5.04479 8.54037C5.04056 8.54507 5.03617 8.54962 5.03194 8.55436C5.00113 8.58879 4.97101 8.62387 4.94129 8.6593C4.933 8.66917 4.9249 8.6792 4.91673 8.68918C4.89438 8.71636 4.87235 8.74381 4.85068 8.77153C4.84231 8.78224 4.83389 8.79289 4.82564 8.80368C4.79729 8.84069 4.7693 8.87801 4.74212 8.91598C4.71292 8.95677 4.68465 8.99806 4.65711 9.03966ZM4.7873 12.229V11.6987V11.2623C4.7873 11.2195 4.78814 11.1769 4.7898 11.1343C4.79032 11.1204 4.79149 11.1065 4.79221 11.0925C4.79366 11.0641 4.79503 11.0357 4.79721 11.0075C4.79853 10.9903 4.80055 10.9733 4.80216 10.9562C4.80449 10.9313 4.80659 10.9064 4.80949 10.8816C4.81162 10.8635 4.8144 10.8455 4.81682 10.8274C4.81996 10.8038 4.8229 10.7802 4.82652 10.7568C4.82946 10.7381 4.83301 10.7196 4.83623 10.7011C4.84017 10.6785 4.84384 10.6558 4.84827 10.6333C4.85201 10.6143 4.85636 10.5955 4.86043 10.5766C4.8651 10.5548 4.86957 10.5329 4.87469 10.5112C4.8792 10.4921 4.88435 10.4731 4.88918 10.4541C4.89462 10.4329 4.89981 10.4116 4.90565 10.3905C4.91097 10.3713 4.91685 10.3524 4.92249 10.3334C4.92861 10.3126 4.93457 10.2919 4.94109 10.2714C4.94717 10.2522 4.95386 10.2333 4.96026 10.2143C4.96711 10.1941 4.97375 10.1739 4.98096 10.1539C4.9878 10.135 4.99517 10.1162 5.00234 10.0974C5.00991 10.0776 5.01732 10.0577 5.02526 10.038C5.03283 10.0193 5.04088 10.0009 5.04873 9.9823C5.05699 9.9629 5.06512 9.9434 5.07374 9.92416C5.08208 9.90561 5.09086 9.88726 5.09951 9.86891C5.10841 9.84998 5.11723 9.83098 5.1265 9.81224C5.13556 9.79393 5.14506 9.77585 5.15444 9.75769C5.16403 9.73919 5.17349 9.72064 5.1834 9.70233C5.19318 9.68429 5.20337 9.66648 5.21348 9.64863C5.22371 9.63055 5.23382 9.61246 5.24437 9.59458C5.25484 9.57684 5.26571 9.55938 5.27646 9.54184C5.28734 9.52418 5.29813 9.50648 5.30936 9.48898C5.32052 9.47159 5.33204 9.45448 5.34351 9.43728C5.35503 9.42005 5.36647 9.40282 5.37831 9.38578C5.39015 9.36874 5.40231 9.35193 5.41447 9.33512C5.42659 9.31835 5.43867 9.30158 5.45107 9.285C5.46356 9.26835 5.4764 9.25193 5.48925 9.23546C5.50198 9.21916 5.51466 9.20285 5.52767 9.18677C5.5408 9.17054 5.55425 9.15454 5.5677 9.1385C5.58103 9.12262 5.5944 9.10678 5.60801 9.09112C5.62174 9.0754 5.63575 9.05986 5.64977 9.04436C5.66374 9.0289 5.67776 9.01344 5.69205 8.99818C5.70635 8.98291 5.72097 8.96787 5.73554 8.95284C5.75012 8.93784 5.7647 8.92292 5.77956 8.9082C5.79446 8.89339 5.80964 8.87882 5.82486 8.86428C5.84005 8.84975 5.85531 8.83529 5.87077 8.82099C5.8862 8.80676 5.90186 8.79273 5.91761 8.77874C5.93339 8.7647 5.94926 8.75071 5.96533 8.73691C5.98135 8.72318 5.99754 8.70965 6.01385 8.6962C6.0302 8.68266 6.04667 8.66921 6.0633 8.65595C6.07985 8.64276 6.09657 8.62977 6.1134 8.61686C6.13035 8.60383 6.14743 8.59091 6.16466 8.57815C6.1817 8.56558 6.19889 8.55317 6.21617 8.54083C6.23373 8.5283 6.25141 8.51593 6.26929 8.50371C6.28676 8.49172 6.3044 8.47992 6.32216 8.4682C6.34036 8.45621 6.35865 8.44437 6.37709 8.43269C6.39501 8.42136 6.41309 8.41014 6.43125 8.39908C6.45006 8.38763 6.46899 8.37633 6.48803 8.36523C6.5064 8.35451 6.52488 8.34391 6.54349 8.3335C6.56282 8.32267 6.58231 8.31199 6.60192 8.30146C6.62073 8.29136 6.63965 8.28138 6.6587 8.27158C6.67863 8.26133 6.69873 8.25127 6.71894 8.24132C6.73811 8.23188 6.75736 8.22258 6.77677 8.21345C6.79204 8.20628 6.80746 8.19934 6.82288 8.19236C7.27548 8.42013 7.79009 8.54974 8.33592 8.54974C8.88178 8.54974 9.39636 8.42013 9.84895 8.19236C9.86426 8.1993 9.87956 8.2062 9.8947 8.21329C9.91435 8.22255 9.9338 8.23195 9.95321 8.24147C9.97319 8.25131 9.99308 8.26125 10.0128 8.27139C10.0321 8.2813 10.0512 8.2914 10.0702 8.30162C10.0896 8.31203 10.1088 8.32255 10.1279 8.33327C10.1468 8.34383 10.1655 8.35459 10.1841 8.36546C10.2029 8.37645 10.2216 8.38755 10.2401 8.39884C10.2585 8.41006 10.2768 8.4214 10.295 8.43292C10.3132 8.44445 10.3313 8.45617 10.3493 8.46801C10.3672 8.47984 10.385 8.49176 10.4027 8.50386C10.4204 8.51597 10.4379 8.52822 10.4553 8.54064C10.4727 8.55305 10.4901 8.56558 10.5073 8.5783C10.5244 8.59095 10.5413 8.60375 10.5581 8.61666C10.575 8.62966 10.5919 8.64272 10.6085 8.65599C10.6251 8.66917 10.6414 8.68255 10.6577 8.696C10.6741 8.70954 10.6904 8.72314 10.7065 8.73698C10.7225 8.75067 10.7382 8.76455 10.7539 8.77847C10.7697 8.79258 10.7856 8.80676 10.8011 8.82114C10.8165 8.83529 10.8316 8.84963 10.8466 8.86401C10.8619 8.87866 10.8772 8.89335 10.8922 8.90823C10.907 8.92288 10.9215 8.93769 10.936 8.95257C10.9507 8.96772 10.9654 8.98291 10.9798 8.99829C10.994 9.0134 11.0079 9.02871 11.0217 9.04405C11.0359 9.05967 11.05 9.07532 11.0638 9.0912C11.0774 9.10674 11.0906 9.12251 11.1039 9.13827C11.1174 9.15439 11.131 9.17046 11.1442 9.18681C11.1571 9.20281 11.1697 9.21904 11.1824 9.23527C11.1953 9.25177 11.2082 9.26831 11.2207 9.28504C11.2331 9.3015 11.2451 9.31824 11.2572 9.33493C11.2694 9.35181 11.2816 9.3687 11.2935 9.38582C11.3052 9.40274 11.3166 9.41986 11.328 9.43698C11.3396 9.45429 11.3512 9.47156 11.3624 9.48906C11.3735 9.50637 11.3843 9.52395 11.3951 9.54145C11.4059 9.55911 11.4169 9.57673 11.4274 9.59458C11.4379 9.61239 11.448 9.63043 11.4582 9.6484C11.4683 9.66632 11.4785 9.68421 11.4883 9.70229C11.4982 9.72056 11.5076 9.73911 11.5172 9.75758C11.5266 9.77573 11.5362 9.79385 11.5452 9.8122C11.5545 9.83094 11.5633 9.84987 11.5721 9.86876C11.5808 9.88723 11.5896 9.90558 11.598 9.9242C11.6066 9.94328 11.6146 9.9626 11.6228 9.98187C11.6308 10.0006 11.6389 10.0193 11.6465 10.0382C11.6544 10.0577 11.6618 10.0775 11.6693 10.0972C11.6765 10.1161 11.6839 10.1348 11.6907 10.1539C11.698 10.1739 11.7046 10.1943 11.7115 10.2145C11.7179 10.2334 11.7245 10.2523 11.7306 10.2714C11.7371 10.2919 11.7431 10.3127 11.7492 10.3334C11.7549 10.3524 11.7607 10.3713 11.7661 10.3905C11.7719 10.4116 11.7771 10.4329 11.7825 10.4541C11.7874 10.4731 11.7925 10.4921 11.797 10.5112C11.8021 10.5329 11.8066 10.5547 11.8113 10.5765C11.8154 10.5954 11.8197 10.6143 11.8234 10.6333C11.8278 10.6556 11.8315 10.6781 11.8354 10.7005C11.8387 10.7193 11.8423 10.738 11.8452 10.7568C11.8489 10.7801 11.8518 10.8035 11.8549 10.8269C11.8574 10.8451 11.8602 10.8632 11.8623 10.8816C11.8652 10.9063 11.8673 10.9313 11.8696 10.9562C11.8712 10.9733 11.8733 10.9903 11.8746 11.0074C11.8768 11.0357 11.8781 11.0641 11.8796 11.0926C11.8803 11.1065 11.8815 11.1204 11.882 11.1343C11.8836 11.1768 11.8845 11.2195 11.8845 11.2623V11.6986V12.229H4.7873ZM12.676 10.9276C12.6681 10.8337 12.6568 10.7404 12.6423 10.6476C12.64 10.6329 12.6373 10.6184 12.6349 10.6037C12.6293 10.5701 12.6234 10.5366 12.6169 10.5033C12.6135 10.4857 12.6098 10.4682 12.6061 10.4506C12.5998 10.4201 12.5932 10.3897 12.5861 10.3594C12.5819 10.3411 12.5774 10.3229 12.5729 10.3047C12.5655 10.2749 12.5578 10.2453 12.5498 10.2157C12.5449 10.1978 12.54 10.1799 12.5349 10.162C12.526 10.1312 12.5166 10.1006 12.507 10.07C12.502 10.0539 12.4971 10.0378 12.4919 10.0217C12.48 9.9855 12.4674 9.94949 12.4545 9.91356C12.4509 9.90353 12.4476 9.89339 12.4438 9.88337C12.4269 9.8373 12.409 9.7915 12.3903 9.74597C12.3863 9.73622 12.3819 9.72658 12.3778 9.71683C12.3629 9.68147 12.3477 9.6462 12.3318 9.61119C12.3247 9.59566 12.3173 9.58031 12.31 9.56485C12.2963 9.53571 12.2825 9.50668 12.2681 9.47784C12.2597 9.46096 12.251 9.44418 12.2423 9.42741C12.2282 9.40004 12.2137 9.37279 12.1989 9.34568C12.1897 9.32872 12.1804 9.31184 12.1709 9.29499C12.1556 9.26789 12.1398 9.24098 12.1239 9.21414C12.1143 9.19803 12.1049 9.18192 12.0951 9.16592C12.0773 9.13696 12.059 9.10832 12.0405 9.07971C12.0319 9.06637 12.0235 9.05292 12.0147 9.0397C11.9871 8.9981 11.9589 8.95681 11.9296 8.91598C11.9024 8.87797 11.8744 8.84065 11.8461 8.80364C11.8379 8.79292 11.8295 8.78232 11.8212 8.77168C11.7994 8.74381 11.7773 8.71628 11.7549 8.68899C11.7468 8.67916 11.7388 8.66921 11.7305 8.65946C11.7008 8.62391 11.6705 8.58875 11.6397 8.55425C11.6356 8.54978 11.6315 8.54542 11.6274 8.54095C11.6002 8.51076 11.5725 8.481 11.5445 8.45162C11.5348 8.44152 11.5251 8.43154 11.5153 8.42151C11.4905 8.39595 11.4652 8.3707 11.4397 8.3458C11.4313 8.33758 11.423 8.3293 11.4145 8.32116C11.3813 8.28924 11.3475 8.25778 11.3133 8.22694C11.3063 8.22058 11.299 8.21441 11.2919 8.20809C11.2639 8.18322 11.2357 8.15874 11.2071 8.13461C11.1962 8.12543 11.1852 8.11633 11.1743 8.10724C11.1458 8.08368 11.117 8.06051 11.0879 8.03769C11.0799 8.03148 11.0722 8.02512 11.0642 8.01895C11.0277 7.99073 10.9907 7.96313 10.9533 7.93606C10.9439 7.92932 10.9344 7.92276 10.9251 7.91609C10.8957 7.89528 10.8662 7.87477 10.8363 7.85464C10.8246 7.84674 10.8129 7.83887 10.8011 7.83109C10.7678 7.80907 10.7342 7.78748 10.7002 7.76636C10.6942 7.76266 10.6884 7.7588 10.6824 7.75514C10.6481 7.73405 10.6136 7.71335 10.5786 7.69315C10.5876 7.68494 10.5961 7.67619 10.605 7.66786C10.63 7.64473 10.6545 7.62121 10.6786 7.59731C10.6921 7.58397 10.7055 7.57059 10.7188 7.55702C10.7451 7.53003 10.7708 7.50251 10.7962 7.47463C10.807 7.4628 10.8178 7.45104 10.8284 7.43901C10.8554 7.4084 10.8817 7.37714 10.9075 7.34549C10.916 7.33515 10.9246 7.32498 10.9329 7.31453C10.9588 7.28195 10.9838 7.24872 11.0084 7.21518C11.1656 7.23727 11.3239 7.24845 11.4818 7.24845C12.0276 7.24845 12.5422 7.11884 12.9948 6.89103C14.2373 7.45459 15.0304 8.64026 15.0304 9.96098V10.9276H12.676Z" stroke="#161E29" stroke-width="0.4" mask="url(#path-1-outside-1_14_51486)"/>
</svg>