<svg xmlns="http://www.w3.org/2000/svg" width="26" height="26" viewBox="0 0 26 26" fill="none">
  <path d="M13 26C20.1797 26 26 20.1797 26 13C26 5.8203 20.1797 0 13 0C5.8203 0 0 5.8203 0 13C0 20.1797 5.8203 26 13 26Z" fill="#03A9F4"/>
  <path d="M21.4197 7.77833C20.7863 8.05497 20.1163 8.23875 19.4304 8.32399C20.1534 7.89522 20.6939 7.21594 20.9493 6.41504C20.2726 6.81674 19.5321 7.09964 18.7599 7.25149C18.2867 6.74543 17.6721 6.39348 16.9962 6.24141C16.3203 6.08933 15.6142 6.14418 14.9699 6.39882C14.3255 6.65345 13.7727 7.09609 13.3834 7.66915C12.994 8.24222 12.7861 8.91919 12.7867 9.61202C12.7843 9.87647 12.8112 10.1404 12.8671 10.3989C11.4935 10.3314 10.1496 9.97491 8.92312 9.35269C7.69668 8.73048 6.61528 7.85653 5.74959 6.78794C5.30461 7.54811 5.16675 8.44953 5.36419 9.30795C5.56163 10.1664 6.07945 10.917 6.81182 11.4064C6.26518 11.3916 5.73011 11.2455 5.25182 10.9804V11.0181C5.25336 11.8149 5.52916 12.5869 6.03287 13.2043C6.53657 13.8217 7.23747 14.2469 8.01775 14.4083C7.72246 14.4859 7.41817 14.5239 7.11288 14.5212C6.89305 14.5253 6.67342 14.5058 6.45774 14.4631C6.68129 15.1483 7.11166 15.7475 7.68967 16.1782C8.26768 16.6089 8.96492 16.8499 9.68551 16.8681C8.4644 17.8225 6.95906 18.341 5.40919 18.3408C5.13304 18.3432 4.85704 18.3272 4.58301 18.2929C6.16331 19.3118 8.00536 19.8502 9.88564 19.8427C16.2402 19.8427 19.7143 14.5794 19.7143 10.0174C19.7143 9.86518 19.7143 9.71807 19.7023 9.57097C20.3789 9.08268 20.9609 8.47522 21.4197 7.77833Z" fill="white"/>
</svg>