<svg width="26" height="26" viewBox="0 0 26 26" fill="none" xmlns="http://www.w3.org/2000/svg">
<rect width="26" height="26" fill="#1E1E1E"/>
<g id="Registration Flows">
<path d="M-4563 -1515C-4563 -1516.1 -4562.1 -1517 -4561 -1517H9094C9095.1 -1517 9096 -1516.1 9096 -1515V3518C9096 3519.1 9095.1 3520 9094 3520H-4561C-4562.1 3520 -4563 3519.1 -4563 3518V-1515Z" fill="#0F0F0F"/>
<g id="Log in">
<path d="M-329 -951C-329 -952.105 -328.105 -953 -327 -953H3053C3054.1 -953 3055 -952.105 3055 -951V545C3055 546.105 3054.1 547 3053 547H-327C-328.104 547 -329 546.105 -329 545V-951Z" fill="#413F3F"/>
<g id="log in">
<g clip-path="url(#clip0_0_1)">
<rect x="-102" y="-728" width="1440" height="1050" rx="30" fill="#FAFAFD"/>
<g id="Group 1171277613">
<g id="Frame 1171276770">
<g id="Group 1171277611">
<g id="Rectangle 6667429">
<path d="M-31 13C-31 -1.3594 -19.3594 -13 -5 -13H166C180.359 -13 192 -1.3594 192 13C192 27.3594 180.359 39 166 39H-5C-19.3594 39 -31 27.3594 -31 13Z" fill="white" fill-opacity="0.6"/>
<path d="M-30.5 13C-30.5 -1.08326 -19.0833 -12.5 -5 -12.5H166C180.083 -12.5 191.5 -1.08326 191.5 13C191.5 27.0833 180.083 38.5 166 38.5H-5C-19.0833 38.5 -30.5 27.0833 -30.5 13Z" stroke="#161E29" stroke-opacity="0.15"/>
</g>
<g id="Google signup">
<g id="Frame 1171276769">
<g id="Layer 2">
<g id="Color">
<g id="04.Twitter">
<path id="Background" d="M13 26C20.1797 26 26 20.1797 26 13C26 5.8203 20.1797 0 13 0C5.8203 0 0 5.8203 0 13C0 20.1797 5.8203 26 13 26Z" fill="#03A9F4"/>
<path id="Icon" d="M21.4197 7.77833C20.7863 8.05497 20.1163 8.23875 19.4304 8.32399C20.1534 7.89522 20.6939 7.21594 20.9493 6.41504C20.2726 6.81674 19.5321 7.09964 18.7599 7.25149C18.2867 6.74543 17.6721 6.39348 16.9962 6.24141C16.3203 6.08933 15.6142 6.14418 14.9699 6.39882C14.3255 6.65345 13.7727 7.09609 13.3834 7.66915C12.994 8.24222 12.7861 8.91919 12.7867 9.61202C12.7843 9.87647 12.8112 10.1404 12.8671 10.3989C11.4935 10.3314 10.1496 9.97491 8.92312 9.35269C7.69668 8.73048 6.61528 7.85653 5.74959 6.78794C5.30461 7.54811 5.16675 8.44953 5.36419 9.30795C5.56163 10.1664 6.07945 10.917 6.81182 11.4064C6.26518 11.3916 5.73011 11.2455 5.25182 10.9804V11.0181C5.25336 11.8149 5.52916 12.5869 6.03287 13.2043C6.53657 13.8217 7.23747 14.2469 8.01775 14.4083C7.72246 14.4859 7.41817 14.5239 7.11288 14.5212C6.89305 14.5253 6.67342 14.5058 6.45774 14.4631C6.68129 15.1483 7.11166 15.7475 7.68967 16.1782C8.26768 16.6089 8.96492 16.8499 9.68551 16.8681C8.4644 17.8225 6.95906 18.341 5.40919 18.3408C5.13304 18.3432 4.85704 18.3272 4.58301 18.2929C6.16331 19.3118 8.00536 19.8502 9.88564 19.8427C16.2402 19.8427 19.7143 14.5794 19.7143 10.0174C19.7143 9.86518 19.7143 9.71807 19.7023 9.57097C20.3789 9.08268 20.9609 8.47522 21.4197 7.77833Z" fill="white"/>
</g>
</g>
</g>
</g>
</g>
</g>
</g>
</g>
</g>
</g>
<path d="M-327 -952H3053V-954H-327V-952ZM3054 -951V545H3056V-951H3054ZM3053 546H-327V548H3053V546ZM-328 545V-951H-330V545H-328ZM-327 546C-327.552 546 -328 545.552 -328 545H-330C-330 546.657 -328.657 548 -327 548V546ZM3054 545C3054 545.552 3053.55 546 3053 546V548C3054.66 548 3056 546.657 3056 545H3054ZM3053 -952C3053.55 -952 3054 -951.552 3054 -951H3056C3056 -952.657 3054.66 -954 3053 -954V-952ZM-327 -954C-328.657 -954 -330 -952.657 -330 -951H-328C-328 -951.552 -327.552 -952 -327 -952V-954Z" fill="white" fill-opacity="0.1"/>
</g>
<path d="M-4561 -1516H9094V-1518H-4561V-1516ZM9095 -1515V3518H9097V-1515H9095ZM9094 3519H-4561V3521H9094V3519ZM-4562 3518V-1515H-4564V3518H-4562ZM-4561 3519C-4561.55 3519 -4562 3518.55 -4562 3518H-4564C-4564 3519.66 -4562.66 3521 -4561 3521V3519ZM9095 3518C9095 3518.55 9094.55 3519 9094 3519V3521C9095.66 3521 9097 3519.66 9097 3518H9095ZM9094 -1516C9094.55 -1516 9095 -1515.55 9095 -1515H9097C9097 -1516.66 9095.66 -1518 9094 -1518V-1516ZM-4561 -1518C-4562.66 -1518 -4564 -1516.66 -4564 -1515H-4562C-4562 -1515.55 -4561.55 -1516 -4561 -1516V-1518Z" fill="white" fill-opacity="0.1"/>
</g>
<defs>
<clipPath id="clip0_0_1">
<rect x="-102" y="-728" width="1440" height="1050" rx="30" fill="white"/>
</clipPath>
</defs>
</svg>
