<svg xmlns="http://www.w3.org/2000/svg" width="19" height="23" viewBox="0 0 19 23" fill="none">
  <path d="M9.49158 16.6798C6.42567 16.6798 3.93164 13.934 3.93164 10.5591V6.1207C3.93164 2.74582 6.42567 0 9.49158 0C12.5575 0 15.0515 2.74582 15.0515 6.1207V10.5591C15.0515 13.934 12.5575 16.6798 9.49158 16.6798ZM9.49158 1.58855C7.30176 1.58855 5.5202 3.6219 5.5202 6.1207V10.5591C5.5202 13.0579 7.30176 15.0913 9.49158 15.0913C11.6814 15.0913 13.463 13.0579 13.463 10.5591V6.1207C13.463 3.6219 11.6814 1.58855 9.49158 1.58855Z" fill="#161E29"/>
  <path d="M9.49351 19.8668C7.42449 19.9774 5.38773 19.3184 3.7757 18.0167C2.16367 16.715 1.09044 14.8627 0.762811 12.8168C0.739432 12.6093 0.798679 12.401 0.927734 12.2369C1.05679 12.0728 1.24527 11.9661 1.4524 11.9399C1.65953 11.9137 1.86865 11.9701 2.03451 12.0969C2.20037 12.2237 2.30963 12.4107 2.33866 12.6175C2.36884 12.8486 3.15676 18.2783 9.49351 18.2783C15.8303 18.2783 16.6182 12.8486 16.6484 12.6175C16.6774 12.4107 16.7866 12.2237 16.9525 12.0969C17.1184 11.9701 17.3275 11.9137 17.5346 11.9399C17.7417 11.9661 17.9302 12.0728 18.0593 12.2369C18.1883 12.401 18.2476 12.6093 18.2242 12.8168C17.8966 14.8627 16.8233 16.715 15.2113 18.0167C13.5993 19.3184 11.5625 19.9774 9.49351 19.8668Z" fill="#161E29"/>
  <path d="M9.4974 22.2377C9.28675 22.2377 9.08472 22.154 8.93576 22.005C8.78681 21.8561 8.70312 21.654 8.70312 21.4434V19.8548C8.70312 19.6442 8.78681 19.4421 8.93576 19.2932C9.08472 19.1442 9.28675 19.0605 9.4974 19.0605C9.70806 19.0605 9.91009 19.1442 10.059 19.2932C10.208 19.4421 10.2917 19.6442 10.2917 19.8548V21.4434C10.2917 21.654 10.208 21.8561 10.059 22.005C9.91009 22.154 9.70806 22.2377 9.4974 22.2377Z" fill="#161E29"/>
</svg>